<svg width="4000" height="2400" viewBox="0 0 4000 2400" fill="none" xmlns="http://www.w3.org/2000/svg">
<g clip-path="url(#clip0)">
<mask id="path-1-outside-1" maskUnits="userSpaceOnUse" x="180.5" y="161" width="3750" height="2140" fill="black">
<rect fill="white" x="180.5" y="161" width="3750" height="2140"/>
<path fill-rule="evenodd" clip-rule="evenodd" d="M429 1548.5H343L190.5 1448V945L342 845.5H429.5V994H568.5V1119.5H701V895.5H539.5V527.5L645 445H947V554H1704V342L1875 171H2425.5L2677 422.5V552H2866V374H3075L3264.5 563.5V831.5H3144.5V941.5H3354V1060.5H3612.5V941.5H3777.5L3920.5 1060.5V1230L3777.5 1345.5H3612.5V1230H3354V1376.5H3146V1604.5H3267V1873L3077.5 2062.5H2869.5V1881.5H2761.5V1955.5H2817V2196.5L2728.5 2285H2470L2381.5 2196.5V1955.5H2629V1881.5H2327.5V2290.5H1981L1801.5 2111V2086.5H1120.5V1837H947V1979H646L539.5 1898V1526.5H701V1287H568V1400.5H429V1548.5ZM2254 1147H2455L2677 925V720.5H2866V742L2955.5 831.5H3010V941.5H2927.5V906H2742.5V941.5L2607 1077V1206.5H2927.5V1109.5H3222.5V1212.5H3010V1604.5H2956.5L2868 1693V1715.5H2328.5V1488.5H2254V1434.5H2421.5V1660.5H2780L2856 1584.5V1272.5H2254V1147ZM834 1119.5V895.5H947V721.5H1380V785H1273.5V1177.5L1343 1266.5H1793V1156L1642 1005V785H1514.5V721.5H1704V931L1920 1147H2118.5V1486H1932.5L1801 1617.5V1916H1479.5V1844.5H1594.5L1684.5 1754.5V1579.5L1793 1471V1363H1352V1916H1255.5V1670.5H947V1526.5H835.5V1287H981.5V1400.5H1207V994L1148.5 935.5H1060L981.5 1014V1119.5H834Z"/>
</mask>
<path fill-rule="evenodd" clip-rule="evenodd" d="M429 1548.5H343L190.5 1448V945L342 845.5H429.5V994H568.5V1119.5H701V895.5H539.5V527.5L645 445H947V554H1704V342L1875 171H2425.5L2677 422.5V552H2866V374H3075L3264.5 563.5V831.5H3144.5V941.5H3354V1060.5H3612.5V941.5H3777.5L3920.5 1060.5V1230L3777.5 1345.5H3612.5V1230H3354V1376.5H3146V1604.5H3267V1873L3077.5 2062.5H2869.5V1881.5H2761.5V1955.5H2817V2196.5L2728.5 2285H2470L2381.5 2196.5V1955.5H2629V1881.5H2327.5V2290.5H1981L1801.5 2111V2086.5H1120.5V1837H947V1979H646L539.5 1898V1526.5H701V1287H568V1400.5H429V1548.5ZM2254 1147H2455L2677 925V720.5H2866V742L2955.5 831.5H3010V941.5H2927.5V906H2742.5V941.5L2607 1077V1206.5H2927.5V1109.5H3222.5V1212.5H3010V1604.5H2956.5L2868 1693V1715.5H2328.5V1488.5H2254V1434.5H2421.5V1660.5H2780L2856 1584.5V1272.5H2254V1147ZM834 1119.5V895.5H947V721.5H1380V785H1273.5V1177.5L1343 1266.5H1793V1156L1642 1005V785H1514.5V721.5H1704V931L1920 1147H2118.5V1486H1932.5L1801 1617.5V1916H1479.5V1844.5H1594.5L1684.5 1754.5V1579.5L1793 1471V1363H1352V1916H1255.5V1670.5H947V1526.5H835.5V1287H981.5V1400.5H1207V994L1148.5 935.5H1060L981.5 1014V1119.5H834Z" fill="#E2E2E2"/>
<path fill-rule="evenodd" clip-rule="evenodd" d="M429 1548.5H343L190.5 1448V945L342 845.5H429.5V994H568.5V1119.5H701V895.5H539.5V527.5L645 445H947V554H1704V342L1875 171H2425.5L2677 422.5V552H2866V374H3075L3264.5 563.5V831.5H3144.5V941.5H3354V1060.5H3612.5V941.5H3777.5L3920.5 1060.5V1230L3777.5 1345.5H3612.5V1230H3354V1376.5H3146V1604.5H3267V1873L3077.5 2062.5H2869.5V1881.5H2761.5V1955.5H2817V2196.5L2728.5 2285H2470L2381.5 2196.5V1955.5H2629V1881.5H2327.5V2290.5H1981L1801.5 2111V2086.5H1120.5V1837H947V1979H646L539.5 1898V1526.5H701V1287H568V1400.5H429V1548.5ZM2254 1147H2455L2677 925V720.5H2866V742L2955.5 831.5H3010V941.5H2927.5V906H2742.5V941.5L2607 1077V1206.5H2927.5V1109.5H3222.5V1212.5H3010V1604.5H2956.5L2868 1693V1715.5H2328.5V1488.5H2254V1434.5H2421.5V1660.5H2780L2856 1584.5V1272.5H2254V1147ZM834 1119.5V895.5H947V721.5H1380V785H1273.5V1177.5L1343 1266.5H1793V1156L1642 1005V785H1514.5V721.5H1704V931L1920 1147H2118.5V1486H1932.5L1801 1617.5V1916H1479.5V1844.5H1594.5L1684.5 1754.5V1579.5L1793 1471V1363H1352V1916H1255.5V1670.5H947V1526.5H835.5V1287H981.5V1400.5H1207V994L1148.5 935.5H1060L981.5 1014V1119.5H834Z" stroke="black" stroke-width="20" mask="url(#path-1-outside-1)"/>
<path d="M2761.5 1881.5V1955.5H2817V2196.5L2728.5 2285H2470L2381.5 2196.5V1955.5H2629V1881.5H2761.5Z" fill="#CE93D8"/>
<path d="M1479.5 1916V1844.5H1594.5L1684.5 1754.5V1579.5L1793 1471V1363H1352V1916H1479.5Z" fill="#CE93D8"/>
<path d="M2327.5 2290.5H1981L1801.5 2111L1801 1617.5L1932.5 1486L2328.5 1488.5L2327.5 2290.5Z" fill="#EF9A9A"/>
<path d="M2254 1434.5H2421.5V1660.5H2780L2856 1584.5V1272.5H2254V1434.5Z" fill="#A5D6A7"/>
<path d="M3267 1604.5V1873L3077.5 2062.5H2869.5L2868 1693L2956.5 1604.5H3267Z" fill="#EF9A9A"/>
<path d="M3612.5 941.5H3777.5L3920.5 1060.5V1230L3777.5 1345.5H3612.5V941.5Z" fill="#EF9A9A"/>
<path d="M2927.5 906H2742.5V941.5L2607 1077V1206.5H2927.5V906Z" fill="#CE93D8"/>
<path d="M2866 374H3075L3264.5 563.5V831.5H2955.5L2866 742V374Z" fill="#EF9A9A"/>
<path d="M1704 342L1875 171H2425.5L2677 422.5V925L2455 1147H1920L1704 931V342Z" fill="#FFE082"/>
<path d="M1273.5 785V1177.5L1343 1266.5H1793V1156L1642 1005V785H1273.5Z" fill="#EF9A9A"/>
<path d="M981.5 1400.5H1207V994L1148.5 935.5H1060L981.5 1014V1400.5Z" fill="#A5D6A7"/>
<path d="M429 1548.5H343L190.5 1448V945L342 845.5H429.5V994H568.5L568 1400.5H429V1548.5Z" fill="#CE93D8"/>
<path d="M947 1979H646L539.5 1898V1526.5H947V1979Z" fill="#EF9A9A"/>
<path d="M539.5 895.5V527.5L645 445H947V895.5H539.5Z" fill="#EF9A9A"/>
<path d="M2089.38 682.885C2085.15 682.885 2081.6 681.951 2078.73 680.082C2075.86 678.194 2073.7 675.589 2072.24 672.265C2070.79 668.941 2070.06 665.106 2070.06 660.76C2070.06 656.414 2070.79 652.579 2072.24 649.255C2073.7 645.931 2075.86 643.335 2078.73 641.467C2081.6 639.579 2085.15 638.635 2089.38 638.635C2094.32 638.635 2098.32 639.913 2101.39 642.47C2104.47 645.027 2106.57 648.449 2107.67 652.736L2104.16 653.591C2103.25 650.032 2101.56 647.21 2099.09 645.125C2096.63 643.021 2093.39 641.968 2089.38 641.968C2085.9 641.968 2083 642.765 2080.68 644.358C2078.38 645.951 2076.64 648.163 2075.46 650.996C2074.3 653.827 2073.71 657.082 2073.69 660.76C2073.65 664.438 2074.21 667.692 2075.37 670.524C2076.55 673.337 2078.31 675.549 2080.65 677.162C2082.99 678.755 2085.9 679.551 2089.38 679.551C2093.39 679.551 2096.63 678.499 2099.09 676.395C2101.56 674.291 2103.25 671.468 2104.16 667.928L2107.67 668.784C2106.57 673.071 2104.47 676.493 2101.39 679.05C2098.32 681.607 2094.32 682.885 2089.38 682.885ZM2122.84 682.885C2120.38 682.885 2118.33 682.452 2116.7 681.587C2115.09 680.722 2113.88 679.581 2113.07 678.165C2112.27 676.729 2111.86 675.176 2111.86 673.504C2111.86 671.695 2112.24 670.18 2112.98 668.961C2113.75 667.742 2114.76 666.758 2116.02 666.011C2117.3 665.264 2118.71 664.703 2120.24 664.329C2121.99 663.936 2123.88 663.602 2125.9 663.326C2127.93 663.031 2129.86 662.776 2131.69 662.559C2133.54 662.343 2135.04 662.156 2136.2 661.999L2134.96 662.736C2135.04 659.295 2134.39 656.738 2133.01 655.066C2131.66 653.375 2129.26 652.529 2125.82 652.529C2123.4 652.529 2121.4 653.08 2119.83 654.181C2118.27 655.263 2117.18 656.945 2116.55 659.226L2113.07 658.252C2113.8 655.361 2115.26 653.139 2117.47 651.585C2119.67 650.032 2122.49 649.255 2125.93 649.255C2128.86 649.255 2131.32 649.825 2133.31 650.966C2135.31 652.107 2136.71 653.709 2137.5 655.774C2137.83 656.62 2138.06 657.613 2138.18 658.754C2138.29 659.875 2138.35 661.006 2138.35 662.146V682H2135.26V673.622L2136.41 673.917C2135.44 676.788 2133.76 679.001 2131.36 680.554C2128.96 682.108 2126.12 682.885 2122.84 682.885ZM2123.01 679.758C2125.18 679.758 2127.07 679.374 2128.71 678.607C2130.34 677.821 2131.66 676.729 2132.66 675.333C2133.68 673.917 2134.33 672.255 2134.61 670.347C2134.8 669.285 2134.91 668.135 2134.93 666.896C2134.95 665.657 2134.96 664.742 2134.96 664.152L2136.44 665.096C2135.16 665.254 2133.62 665.421 2131.83 665.598C2130.06 665.775 2128.25 665.991 2126.41 666.247C2124.56 666.503 2122.89 666.827 2121.39 667.22C2120.47 667.476 2119.53 667.85 2118.59 668.341C2117.66 668.813 2116.89 669.472 2116.26 670.318C2115.65 671.164 2115.34 672.235 2115.34 673.533C2115.34 674.497 2115.58 675.461 2116.05 676.424C2116.54 677.388 2117.35 678.185 2118.47 678.814C2119.59 679.443 2121.11 679.758 2123.01 679.758ZM2148.82 682V647.16C2148.82 646.334 2148.86 645.548 2148.94 644.8C2149.03 644.053 2149.22 643.345 2149.5 642.676C2149.79 642.008 2150.2 641.378 2150.73 640.788C2151.29 640.198 2151.9 639.746 2152.56 639.431C2153.25 639.117 2153.98 638.91 2154.75 638.812C2155.51 638.694 2156.32 638.635 2157.17 638.635H2161.27V641.585H2157.46C2155.71 641.585 2154.39 642.008 2153.51 642.853C2152.64 643.699 2152.21 645.095 2152.21 647.042V682H2148.82ZM2143.15 653.237V650.14H2161.27V653.237H2143.15ZM2177.44 682.885C2174.39 682.885 2171.76 682.207 2169.54 680.849C2167.31 679.473 2165.59 677.536 2164.37 675.038C2163.15 672.521 2162.55 669.551 2162.55 666.129C2162.55 662.648 2163.14 659.649 2164.34 657.131C2165.56 654.594 2167.27 652.647 2169.48 651.29C2171.7 649.933 2174.34 649.255 2177.38 649.255C2180.47 649.255 2183.11 649.963 2185.29 651.379C2187.49 652.775 2189.16 654.801 2190.3 657.456C2191.46 660.111 2192.02 663.307 2191.96 667.043H2188.42V665.863C2188.32 661.497 2187.33 658.174 2185.47 655.892C2183.6 653.611 2180.92 652.47 2177.44 652.47C2173.84 652.47 2171.06 653.66 2169.09 656.04C2167.15 658.4 2166.17 661.743 2166.17 666.07C2166.17 670.357 2167.15 673.681 2169.09 676.041C2171.06 678.401 2173.82 679.581 2177.38 679.581C2179.84 679.581 2181.99 679.011 2183.81 677.87C2185.66 676.71 2187.13 675.058 2188.21 672.914L2191.28 674.271C2190 677.024 2188.15 679.148 2185.73 680.643C2183.31 682.138 2180.55 682.885 2177.44 682.885ZM2164.88 667.043V663.975H2190.04V667.043H2164.88ZM2214.89 682C2213.19 682.374 2211.52 682.511 2209.87 682.413C2208.22 682.334 2206.74 681.97 2205.45 681.321C2204.17 680.653 2203.2 679.63 2202.55 678.253C2202.02 677.132 2201.73 676.002 2201.67 674.861C2201.61 673.72 2201.58 672.412 2201.58 670.937V641.29H2205V670.878C2205 672.216 2205.01 673.327 2205.03 674.212C2205.07 675.077 2205.28 675.874 2205.65 676.601C2206.36 677.958 2207.48 678.784 2209.02 679.079C2210.55 679.355 2212.51 679.306 2214.89 678.932V682ZM2194.44 653.237V650.14H2214.89V653.237H2194.44ZM2232.56 682.885C2229.51 682.885 2226.88 682.207 2224.66 680.849C2222.43 679.473 2220.71 677.536 2219.49 675.038C2218.27 672.521 2217.66 669.551 2217.66 666.129C2217.66 662.648 2218.26 659.649 2219.46 657.131C2220.68 654.594 2222.39 652.647 2224.6 651.29C2226.82 649.933 2229.45 649.255 2232.5 649.255C2235.59 649.255 2238.23 649.963 2240.41 651.379C2242.61 652.775 2244.28 654.801 2245.42 657.456C2246.58 660.111 2247.13 663.307 2247.08 667.043H2243.54V665.863C2243.44 661.497 2242.45 658.174 2240.59 655.892C2238.72 653.611 2236.04 652.47 2232.56 652.47C2228.96 652.47 2226.18 653.66 2224.21 656.04C2222.27 658.4 2221.29 661.743 2221.29 666.07C2221.29 670.357 2222.27 673.681 2224.21 676.041C2226.18 678.401 2228.94 679.581 2232.5 679.581C2234.96 679.581 2237.1 679.011 2238.93 677.87C2240.78 676.71 2242.25 675.058 2243.33 672.914L2246.4 674.271C2245.12 677.024 2243.27 679.148 2240.85 680.643C2238.43 682.138 2235.67 682.885 2232.56 682.885ZM2219.99 667.043V663.975H2245.16V667.043H2219.99ZM2253.1 682V650.14H2256.2V657.78L2255.43 656.777C2255.79 655.873 2256.23 655.037 2256.76 654.27C2257.31 653.483 2257.87 652.844 2258.44 652.353C2259.29 651.566 2260.28 650.976 2261.42 650.582C2262.56 650.169 2263.71 649.933 2264.87 649.874C2266.03 649.796 2267.08 649.884 2268.03 650.14V653.355C2266.77 653.06 2265.43 653.001 2264.02 653.178C2262.6 653.355 2261.27 653.965 2260.03 655.007C2258.95 655.951 2258.17 657.053 2257.67 658.311C2257.18 659.55 2256.87 660.858 2256.73 662.235C2256.59 663.592 2256.52 664.919 2256.52 666.217V682H2253.1ZM2273.7 643.709V639.372H2277.1V643.709H2273.7ZM2273.7 682V650.14H2277.1V682H2273.7ZM2294.67 682.885C2292.21 682.885 2290.16 682.452 2288.53 681.587C2286.92 680.722 2285.71 679.581 2284.9 678.165C2284.09 676.729 2283.69 675.176 2283.69 673.504C2283.69 671.695 2284.07 670.18 2284.81 668.961C2285.58 667.742 2286.59 666.758 2287.85 666.011C2289.13 665.264 2290.54 664.703 2292.07 664.329C2293.82 663.936 2295.71 663.602 2297.73 663.326C2299.76 663.031 2301.69 662.776 2303.52 662.559C2305.36 662.343 2306.87 662.156 2308.03 661.999L2306.79 662.736C2306.87 659.295 2306.22 656.738 2304.84 655.066C2303.49 653.375 2301.09 652.529 2297.65 652.529C2295.23 652.529 2293.23 653.08 2291.66 654.181C2290.1 655.263 2289.01 656.945 2288.38 659.226L2284.9 658.252C2285.63 655.361 2287.09 653.139 2289.3 651.585C2291.5 650.032 2294.32 649.255 2297.76 649.255C2300.69 649.255 2303.15 649.825 2305.14 650.966C2307.14 652.107 2308.54 653.709 2309.33 655.774C2309.66 656.62 2309.89 657.613 2310.01 658.754C2310.12 659.875 2310.18 661.006 2310.18 662.146V682H2307.09V673.622L2308.24 673.917C2307.27 676.788 2305.59 679.001 2303.19 680.554C2300.79 682.108 2297.95 682.885 2294.67 682.885ZM2294.84 679.758C2297.01 679.758 2298.9 679.374 2300.54 678.607C2302.17 677.821 2303.49 676.729 2304.49 675.333C2305.51 673.917 2306.16 672.255 2306.44 670.347C2306.63 669.285 2306.74 668.135 2306.76 666.896C2306.78 665.657 2306.79 664.742 2306.79 664.152L2308.27 665.096C2306.99 665.254 2305.45 665.421 2303.66 665.598C2301.89 665.775 2300.08 665.991 2298.24 666.247C2296.39 666.503 2294.71 666.827 2293.22 667.22C2292.3 667.476 2291.36 667.85 2290.42 668.341C2289.49 668.813 2288.72 669.472 2288.09 670.318C2287.48 671.164 2287.17 672.235 2287.17 673.533C2287.17 674.497 2287.41 675.461 2287.88 676.424C2288.37 677.388 2289.18 678.185 2290.3 678.814C2291.42 679.443 2292.93 679.758 2294.84 679.758Z" fill="black"/>
<path d="M1977.01 1911.89C1974.1 1911.89 1971.47 1911.4 1969.13 1910.44C1966.81 1909.48 1964.89 1908.11 1963.35 1906.34C1961.84 1904.57 1960.83 1902.46 1960.31 1900.03L1963.8 1899.44C1964.52 1902.27 1966.08 1904.5 1968.46 1906.13C1970.86 1907.76 1973.74 1908.58 1977.1 1908.58C1979.38 1908.58 1981.4 1908.22 1983.15 1907.49C1984.9 1906.76 1986.26 1905.74 1987.25 1904.42C1988.23 1903.08 1988.72 1901.53 1988.72 1899.76C1988.72 1898.48 1988.49 1897.41 1988.01 1896.54C1987.56 1895.68 1986.97 1894.97 1986.24 1894.42C1985.52 1893.85 1984.74 1893.4 1983.91 1893.06C1983.09 1892.71 1982.31 1892.42 1981.58 1892.21L1970.9 1889.02C1969.49 1888.61 1968.22 1888.1 1967.1 1887.49C1966 1886.86 1965.06 1886.14 1964.3 1885.33C1963.55 1884.51 1962.97 1883.57 1962.56 1882.53C1962.16 1881.49 1961.97 1880.33 1961.97 1879.05C1961.97 1876.77 1962.58 1874.77 1963.8 1873.06C1965.01 1871.35 1966.69 1870.02 1968.81 1869.08C1970.95 1868.12 1973.41 1867.63 1976.19 1867.63C1978.98 1867.65 1981.49 1868.18 1983.71 1869.2C1985.93 1870.2 1987.75 1871.63 1989.17 1873.48C1990.6 1875.32 1991.53 1877.52 1991.94 1880.05L1988.43 1880.67C1988.15 1878.73 1987.44 1877.03 1986.3 1875.57C1985.18 1874.12 1983.75 1872.98 1982 1872.18C1980.25 1871.37 1978.3 1870.97 1976.16 1870.97C1974.09 1870.95 1972.26 1871.29 1970.67 1872C1969.1 1872.71 1967.86 1873.66 1966.95 1874.86C1966.05 1876.06 1965.59 1877.42 1965.59 1878.93C1965.59 1880.51 1966.02 1881.77 1966.86 1882.71C1967.73 1883.63 1968.78 1884.36 1970.02 1884.89C1971.28 1885.42 1972.48 1885.86 1973.62 1886.19L1982.17 1888.73C1982.98 1888.96 1983.94 1889.3 1985.06 1889.73C1986.19 1890.16 1987.29 1890.78 1988.37 1891.59C1989.45 1892.38 1990.35 1893.43 1991.05 1894.75C1991.78 1896.04 1992.14 1897.68 1992.14 1899.64C1992.14 1901.55 1991.78 1903.26 1991.05 1904.78C1990.33 1906.29 1989.28 1907.58 1987.93 1908.64C1986.57 1909.68 1984.97 1910.48 1983.12 1911.03C1981.27 1911.6 1979.23 1911.89 1977.01 1911.89ZM2014.54 1911C2012.85 1911.37 2011.18 1911.51 2009.52 1911.41C2007.87 1911.33 2006.4 1910.97 2005.1 1910.32C2003.82 1909.65 2002.86 1908.63 2002.21 1907.25C2001.68 1906.13 2001.38 1905 2001.32 1903.86C2001.26 1902.72 2001.23 1901.41 2001.23 1899.94V1870.29H2004.66V1899.88C2004.66 1901.22 2004.67 1902.33 2004.69 1903.21C2004.73 1904.08 2004.93 1904.87 2005.31 1905.6C2006.01 1906.96 2007.13 1907.78 2008.67 1908.08C2010.2 1908.35 2012.16 1908.31 2014.54 1907.93V1911ZM1994.1 1882.24V1879.14H2014.54V1882.24H1994.1ZM2032.16 1911.89C2028.99 1911.89 2026.31 1911.17 2024.1 1909.73C2021.9 1908.3 2020.22 1906.31 2019.06 1903.77C2017.9 1901.24 2017.32 1898.31 2017.32 1895.01C2017.32 1891.69 2017.91 1888.77 2019.09 1886.25C2020.27 1883.71 2021.96 1881.75 2024.16 1880.35C2026.38 1878.95 2029.05 1878.25 2032.16 1878.25C2035.32 1878.25 2038.01 1878.97 2040.21 1880.41C2042.43 1881.82 2044.11 1883.79 2045.25 1886.31C2046.41 1888.83 2046.99 1891.73 2046.99 1895.01C2046.99 1898.37 2046.41 1901.32 2045.25 1903.86C2044.09 1906.38 2042.4 1908.34 2040.18 1909.76C2037.96 1911.18 2035.28 1911.89 2032.16 1911.89ZM2032.16 1908.58C2035.91 1908.58 2038.71 1907.32 2040.56 1904.8C2042.43 1902.29 2043.37 1899.02 2043.37 1895.01C2043.37 1890.92 2042.43 1887.66 2040.56 1885.22C2038.7 1882.78 2035.89 1881.56 2032.16 1881.56C2029.62 1881.56 2027.52 1882.14 2025.87 1883.3C2024.22 1884.44 2022.98 1886.02 2022.16 1888.05C2021.35 1890.05 2020.95 1892.38 2020.95 1895.01C2020.95 1899.1 2021.89 1902.39 2023.78 1904.86C2025.69 1907.34 2028.48 1908.58 2032.16 1908.58ZM2052.98 1911V1879.14H2056.08V1886.78L2055.32 1885.78C2055.67 1884.87 2056.11 1884.04 2056.64 1883.27C2057.19 1882.48 2057.75 1881.84 2058.32 1881.35C2059.17 1880.57 2060.16 1879.98 2061.3 1879.58C2062.44 1879.17 2063.6 1878.93 2064.76 1878.87C2065.92 1878.8 2066.97 1878.88 2067.91 1879.14V1882.36C2066.65 1882.06 2065.32 1882 2063.9 1882.18C2062.48 1882.36 2061.16 1882.97 2059.92 1884.01C2058.84 1884.95 2058.05 1886.05 2057.56 1887.31C2057.07 1888.55 2056.75 1889.86 2056.61 1891.23C2056.48 1892.59 2056.41 1893.92 2056.41 1895.22V1911H2052.98ZM2080.88 1911.89C2078.42 1911.89 2076.37 1911.45 2074.74 1910.59C2073.13 1909.72 2071.92 1908.58 2071.11 1907.16C2070.3 1905.73 2069.9 1904.18 2069.9 1902.5C2069.9 1900.69 2070.28 1899.18 2071.02 1897.96C2071.79 1896.74 2072.8 1895.76 2074.06 1895.01C2075.34 1894.26 2076.75 1893.7 2078.28 1893.33C2080.03 1892.94 2081.92 1892.6 2083.94 1892.33C2085.97 1892.03 2087.9 1891.78 2089.73 1891.56C2091.57 1891.34 2093.08 1891.16 2094.24 1891L2093 1891.74C2093.08 1888.29 2092.43 1885.74 2091.05 1884.07C2089.7 1882.38 2087.3 1881.53 2083.86 1881.53C2081.44 1881.53 2079.44 1882.08 2077.87 1883.18C2076.31 1884.26 2075.22 1885.94 2074.59 1888.23L2071.11 1887.25C2071.84 1884.36 2073.3 1882.14 2075.51 1880.59C2077.71 1879.03 2080.53 1878.25 2083.97 1878.25C2086.9 1878.25 2089.36 1878.83 2091.35 1879.97C2093.35 1881.11 2094.75 1882.71 2095.54 1884.77C2095.87 1885.62 2096.1 1886.61 2096.22 1887.75C2096.33 1888.87 2096.39 1890.01 2096.39 1891.15V1911H2093.3V1902.62L2094.45 1902.92C2093.48 1905.79 2091.8 1908 2089.4 1909.55C2087 1911.11 2084.16 1911.89 2080.88 1911.89ZM2081.05 1908.76C2083.22 1908.76 2085.11 1908.37 2086.75 1907.61C2088.38 1906.82 2089.7 1905.73 2090.7 1904.33C2091.72 1902.92 2092.37 1901.26 2092.65 1899.35C2092.84 1898.29 2092.95 1897.13 2092.97 1895.9C2092.99 1894.66 2093 1893.74 2093 1893.15L2094.48 1894.1C2093.2 1894.25 2091.66 1894.42 2089.87 1894.6C2088.1 1894.77 2086.29 1894.99 2084.45 1895.25C2082.6 1895.5 2080.92 1895.83 2079.43 1896.22C2078.51 1896.48 2077.57 1896.85 2076.63 1897.34C2075.7 1897.81 2074.93 1898.47 2074.3 1899.32C2073.69 1900.16 2073.38 1901.24 2073.38 1902.53C2073.38 1903.5 2073.62 1904.46 2074.09 1905.42C2074.58 1906.39 2075.39 1907.18 2076.51 1907.81C2077.63 1908.44 2079.14 1908.76 2081.05 1908.76ZM2115.94 1926.05C2114.37 1926.05 2112.8 1925.81 2111.22 1925.34C2109.67 1924.88 2108.21 1924.14 2106.86 1923.1C2105.5 1922.07 2104.35 1920.71 2103.4 1918.99L2106.47 1917.17C2107.44 1919.13 2108.8 1920.54 2110.57 1921.38C2112.34 1922.23 2114.14 1922.65 2115.97 1922.65C2118.55 1922.65 2120.58 1922.17 2122.08 1921.21C2123.59 1920.26 2124.67 1918.84 2125.32 1916.93C2125.97 1915.04 2126.3 1912.69 2126.3 1909.88V1901.53H2126.65V1879.14H2129.75V1909.88C2129.75 1910.82 2129.73 1911.73 2129.69 1912.59C2129.65 1913.46 2129.56 1914.32 2129.42 1915.19C2129.07 1917.65 2128.34 1919.67 2127.24 1921.27C2126.14 1922.88 2124.64 1924.08 2122.76 1924.87C2120.89 1925.65 2118.62 1926.05 2115.94 1926.05ZM2115.79 1911.89C2112.79 1911.89 2110.24 1911.15 2108.15 1909.67C2106.09 1908.18 2104.51 1906.16 2103.4 1903.62C2102.32 1901.07 2101.78 1898.2 2101.78 1895.01C2101.78 1891.86 2102.32 1889.02 2103.4 1886.49C2104.49 1883.95 2106.04 1881.94 2108.07 1880.47C2110.11 1878.99 2112.58 1878.25 2115.47 1878.25C2118.44 1878.25 2120.95 1878.98 2122.99 1880.44C2125.04 1881.89 2126.58 1883.89 2127.62 1886.43C2128.67 1888.94 2129.19 1891.81 2129.19 1895.01C2129.19 1898.2 2128.67 1901.06 2127.62 1903.6C2126.58 1906.13 2125.07 1908.15 2123.08 1909.64C2121.1 1911.14 2118.67 1911.89 2115.79 1911.89ZM2116 1908.64C2118.38 1908.64 2120.36 1908.05 2121.93 1906.87C2123.52 1905.67 2124.7 1904.05 2125.47 1902C2126.26 1899.94 2126.65 1897.61 2126.65 1895.01C2126.65 1892.4 2126.26 1890.06 2125.47 1888.02C2124.68 1885.97 2123.5 1884.38 2121.93 1883.24C2120.36 1882.08 2118.4 1881.5 2116.06 1881.5C2113.64 1881.5 2111.65 1882.1 2110.07 1883.3C2108.5 1884.48 2107.33 1886.09 2106.56 1888.14C2105.79 1890.16 2105.41 1892.45 2105.41 1895.01C2105.41 1897.59 2105.8 1899.91 2106.59 1901.97C2107.4 1904.02 2108.58 1905.64 2110.13 1906.84C2111.7 1908.04 2113.66 1908.64 2116 1908.64ZM2150.63 1911.89C2147.59 1911.89 2144.95 1911.21 2142.73 1909.85C2140.51 1908.47 2138.79 1906.54 2137.57 1904.04C2136.35 1901.52 2135.74 1898.55 2135.74 1895.13C2135.74 1891.65 2136.34 1888.65 2137.54 1886.13C2138.76 1883.59 2140.47 1881.65 2142.67 1880.29C2144.89 1878.93 2147.53 1878.25 2150.58 1878.25C2153.66 1878.25 2156.3 1878.96 2158.48 1880.38C2160.68 1881.78 2162.36 1883.8 2163.5 1886.46C2164.66 1889.11 2165.21 1892.31 2165.15 1896.04H2161.61V1894.86C2161.51 1890.5 2160.53 1887.17 2158.66 1884.89C2156.79 1882.61 2154.12 1881.47 2150.63 1881.47C2147.04 1881.47 2144.25 1882.66 2142.29 1885.04C2140.34 1887.4 2139.37 1890.74 2139.37 1895.07C2139.37 1899.36 2140.34 1902.68 2142.29 1905.04C2144.25 1907.4 2147.02 1908.58 2150.58 1908.58C2153.03 1908.58 2155.18 1908.01 2157.01 1906.87C2158.86 1905.71 2160.32 1904.06 2161.4 1901.91L2164.47 1903.27C2163.19 1906.02 2161.34 1908.15 2158.92 1909.64C2156.51 1911.14 2153.74 1911.89 2150.63 1911.89ZM2138.07 1896.04V1892.98H2163.23V1896.04H2138.07Z" fill="black"/>
<path d="M2518.68 2128.89C2514.45 2128.89 2510.9 2127.95 2508.03 2126.08C2505.16 2124.19 2502.99 2121.59 2501.54 2118.26C2500.08 2114.94 2499.36 2111.11 2499.36 2106.76C2499.36 2102.41 2500.08 2098.58 2501.54 2095.25C2502.99 2091.93 2505.16 2089.34 2508.03 2087.47C2510.9 2085.58 2514.45 2084.63 2518.68 2084.63C2523.61 2084.63 2527.62 2085.91 2530.68 2088.47C2533.77 2091.03 2535.87 2094.45 2536.97 2098.74L2533.46 2099.59C2532.55 2096.03 2530.86 2093.21 2528.38 2091.12C2525.93 2089.02 2522.69 2087.97 2518.68 2087.97C2515.2 2087.97 2512.3 2088.76 2509.98 2090.36C2507.67 2091.95 2505.93 2094.16 2504.75 2097C2503.59 2099.83 2503 2103.08 2502.98 2106.76C2502.94 2110.44 2503.51 2113.69 2504.67 2116.52C2505.85 2119.34 2507.61 2121.55 2509.95 2123.16C2512.29 2124.75 2515.2 2125.55 2518.68 2125.55C2522.69 2125.55 2525.93 2124.5 2528.38 2122.39C2530.86 2120.29 2532.55 2117.47 2533.46 2113.93L2536.97 2114.78C2535.87 2119.07 2533.77 2122.49 2530.68 2125.05C2527.62 2127.61 2523.61 2128.89 2518.68 2128.89ZM2556 2128.89C2552.83 2128.89 2550.15 2128.17 2547.95 2126.73C2545.74 2125.3 2544.06 2123.31 2542.9 2120.77C2541.74 2118.24 2541.16 2115.31 2541.16 2112.01C2541.16 2108.69 2541.75 2105.77 2542.93 2103.25C2544.11 2100.71 2545.8 2098.75 2548 2097.35C2550.23 2095.95 2552.89 2095.25 2556 2095.25C2559.17 2095.25 2561.85 2095.97 2564.05 2097.41C2566.27 2098.82 2567.96 2100.79 2569.1 2103.31C2570.26 2105.83 2570.84 2108.73 2570.84 2112.01C2570.84 2115.37 2570.26 2118.32 2569.1 2120.86C2567.94 2123.38 2566.25 2125.34 2564.02 2126.76C2561.8 2128.18 2559.13 2128.89 2556 2128.89ZM2556 2125.58C2559.76 2125.58 2562.56 2124.32 2564.41 2121.8C2566.27 2119.29 2567.21 2116.02 2567.21 2112.01C2567.21 2107.92 2566.27 2104.66 2564.41 2102.22C2562.54 2099.78 2559.74 2098.56 2556 2098.56C2553.46 2098.56 2551.37 2099.14 2549.72 2100.3C2548.06 2101.44 2546.82 2103.02 2546 2105.05C2545.19 2107.05 2544.79 2109.38 2544.79 2112.01C2544.79 2116.1 2545.73 2119.39 2547.62 2121.86C2549.53 2124.34 2552.32 2125.58 2556 2125.58ZM2614.74 2128L2614.79 2106.58C2614.79 2104.01 2614.06 2101.99 2612.58 2100.54C2611.13 2099.06 2609.31 2098.32 2607.12 2098.32C2605.89 2098.32 2604.66 2098.61 2603.44 2099.18C2602.24 2099.75 2601.23 2100.67 2600.43 2101.95C2599.62 2103.23 2599.22 2104.96 2599.22 2107.14L2596.83 2106.76C2596.75 2104.44 2597.17 2102.42 2598.1 2100.71C2599.04 2098.98 2600.34 2097.64 2601.99 2096.7C2603.66 2095.76 2605.56 2095.28 2607.68 2095.28C2610.81 2095.28 2613.34 2096.25 2615.27 2098.18C2617.21 2100.1 2618.19 2102.74 2618.19 2106.08L2618.13 2128H2614.74ZM2576.83 2128V2096.14H2579.93V2103.31H2580.22V2128H2576.83ZM2595.8 2128L2595.86 2106.91C2595.86 2104.27 2595.14 2102.19 2593.7 2100.65C2592.27 2099.1 2590.4 2098.32 2588.1 2098.32C2585.76 2098.32 2583.86 2099.13 2582.4 2100.74C2580.95 2102.33 2580.22 2104.47 2580.22 2107.14L2577.86 2105.96C2577.86 2103.9 2578.33 2102.07 2579.28 2100.48C2580.22 2098.86 2581.51 2097.6 2583.14 2096.67C2584.79 2095.75 2586.68 2095.28 2588.8 2095.28C2590.71 2095.28 2592.45 2095.69 2594.03 2096.49C2595.6 2097.3 2596.86 2098.52 2597.8 2100.15C2598.75 2101.76 2599.22 2103.79 2599.22 2106.23L2599.16 2128H2595.8ZM2663.27 2128L2663.33 2106.58C2663.33 2104.01 2662.59 2101.99 2661.11 2100.54C2659.66 2099.06 2657.84 2098.32 2655.66 2098.32C2654.42 2098.32 2653.19 2098.61 2651.97 2099.18C2650.77 2099.75 2649.77 2100.67 2648.96 2101.95C2648.15 2103.23 2647.75 2104.96 2647.75 2107.14L2645.36 2106.76C2645.28 2104.44 2645.71 2102.42 2646.63 2100.71C2647.57 2098.98 2648.87 2097.64 2650.52 2096.7C2652.2 2095.76 2654.09 2095.28 2656.22 2095.28C2659.34 2095.28 2661.87 2096.25 2663.8 2098.18C2665.75 2100.1 2666.72 2102.74 2666.72 2106.08L2666.66 2128H2663.27ZM2625.36 2128V2096.14H2628.46V2103.31H2628.75V2128H2625.36ZM2644.33 2128L2644.39 2106.91C2644.39 2104.27 2643.67 2102.19 2642.23 2100.65C2640.8 2099.1 2638.93 2098.32 2636.63 2098.32C2634.29 2098.32 2632.39 2099.13 2630.94 2100.74C2629.48 2102.33 2628.75 2104.47 2628.75 2107.14L2626.39 2105.96C2626.39 2103.9 2626.86 2102.07 2627.81 2100.48C2628.75 2098.86 2630.04 2097.6 2631.67 2096.67C2633.32 2095.75 2635.21 2095.28 2637.34 2095.28C2639.24 2095.28 2640.99 2095.69 2642.56 2096.49C2644.13 2097.3 2645.39 2098.52 2646.33 2100.15C2647.28 2101.76 2647.75 2103.79 2647.75 2106.23L2647.69 2128H2644.33ZM2685.66 2128.83C2681.99 2128.83 2678.95 2128.05 2676.55 2126.5C2674.17 2124.94 2672.69 2122.78 2672.12 2120.01L2675.6 2119.42C2676.09 2121.3 2677.26 2122.81 2679.08 2123.93C2680.91 2125.05 2683.16 2125.61 2685.81 2125.61C2688.45 2125.61 2690.54 2125.05 2692.09 2123.93C2693.65 2122.81 2694.42 2121.27 2694.42 2119.33C2694.42 2118.26 2694.18 2117.4 2693.69 2116.73C2693.21 2116.04 2692.27 2115.41 2690.85 2114.84C2689.44 2114.27 2687.33 2113.6 2684.54 2112.84C2681.59 2112.05 2679.28 2111.26 2677.61 2110.48C2675.96 2109.69 2674.79 2108.8 2674.1 2107.79C2673.43 2106.79 2673.1 2105.56 2673.1 2104.1C2673.1 2102.35 2673.6 2100.82 2674.6 2099.5C2675.6 2098.17 2677 2097.12 2678.79 2096.38C2680.6 2095.63 2682.68 2095.25 2685.04 2095.25C2687.4 2095.25 2689.53 2095.65 2691.42 2096.43C2693.3 2097.2 2694.83 2098.28 2695.99 2099.68C2697.15 2101.06 2697.82 2102.66 2697.99 2104.49L2694.51 2105.14C2694.18 2103.09 2693.15 2101.48 2691.42 2100.3C2689.68 2099.1 2687.52 2098.49 2684.93 2098.47C2682.47 2098.43 2680.46 2098.92 2678.91 2099.95C2677.35 2100.95 2676.58 2102.28 2676.58 2103.93C2676.58 2104.87 2676.84 2105.68 2677.37 2106.35C2677.92 2107 2678.89 2107.6 2680.26 2108.15C2681.64 2108.7 2683.59 2109.29 2686.11 2109.92C2689.17 2110.7 2691.56 2111.51 2693.27 2112.34C2695 2113.16 2696.22 2114.13 2696.93 2115.26C2697.64 2116.36 2697.99 2117.72 2697.99 2119.36C2697.99 2122.31 2696.89 2124.63 2694.69 2126.32C2692.51 2127.99 2689.5 2128.83 2685.66 2128.83Z" fill="black"/>
<path d="M1401.69 1627V1584.52H1427.95V1587.82H1405.09V1603.96H1424.41V1607.26H1405.09V1623.7H1427.95V1627H1401.69ZM1435.14 1627V1583.63H1438.54V1627H1435.14ZM1460.03 1627.89C1456.98 1627.89 1454.35 1627.21 1452.12 1625.85C1449.9 1624.47 1448.18 1622.54 1446.96 1620.04C1445.74 1617.52 1445.13 1614.55 1445.13 1611.13C1445.13 1607.65 1445.73 1604.65 1446.93 1602.13C1448.15 1599.59 1449.86 1597.65 1452.07 1596.29C1454.29 1594.93 1456.92 1594.25 1459.97 1594.25C1463.06 1594.25 1465.69 1594.96 1467.88 1596.38C1470.08 1597.78 1471.75 1599.8 1472.89 1602.46C1474.05 1605.11 1474.6 1608.31 1474.54 1612.04H1471V1610.86C1470.91 1606.5 1469.92 1603.17 1468.05 1600.89C1466.19 1598.61 1463.51 1597.47 1460.03 1597.47C1456.43 1597.47 1453.65 1598.66 1451.68 1601.04C1449.74 1603.4 1448.76 1606.74 1448.76 1611.07C1448.76 1615.36 1449.74 1618.68 1451.68 1621.04C1453.65 1623.4 1456.41 1624.58 1459.97 1624.58C1462.43 1624.58 1464.57 1624.01 1466.4 1622.87C1468.25 1621.71 1469.72 1620.06 1470.8 1617.91L1473.87 1619.27C1472.59 1622.02 1470.74 1624.15 1468.32 1625.64C1465.9 1627.14 1463.14 1627.89 1460.03 1627.89ZM1447.46 1612.04V1608.98H1472.63V1612.04H1447.46ZM1493.58 1627.89C1490.39 1627.89 1487.71 1627.18 1485.53 1625.76C1483.34 1624.33 1481.68 1622.35 1480.54 1619.83C1479.42 1617.29 1478.84 1614.37 1478.8 1611.07C1478.84 1607.71 1479.43 1604.77 1480.57 1602.25C1481.73 1599.71 1483.4 1597.75 1485.59 1596.35C1487.77 1594.95 1490.44 1594.25 1493.61 1594.25C1496.7 1594.25 1499.41 1595 1501.75 1596.5C1504.11 1597.97 1505.74 1600.01 1506.65 1602.6L1503.34 1603.81C1502.54 1601.83 1501.27 1600.29 1499.54 1599.21C1497.81 1598.11 1495.82 1597.56 1493.58 1597.56C1491.06 1597.56 1488.99 1598.14 1487.36 1599.3C1485.72 1600.44 1484.5 1602.02 1483.7 1604.05C1482.89 1606.07 1482.47 1608.41 1482.43 1611.07C1482.49 1615.14 1483.44 1618.42 1485.29 1620.89C1487.16 1623.35 1489.92 1624.58 1493.58 1624.58C1495.84 1624.58 1497.8 1624.06 1499.45 1623.02C1501.12 1621.98 1502.4 1620.46 1503.29 1618.47L1506.65 1619.62C1505.41 1622.32 1503.68 1624.37 1501.46 1625.79C1499.23 1627.19 1496.61 1627.89 1493.58 1627.89ZM1529.24 1627C1527.55 1627.37 1525.88 1627.51 1524.22 1627.41C1522.57 1627.33 1521.1 1626.97 1519.8 1626.32C1518.52 1625.65 1517.56 1624.63 1516.91 1623.25C1516.38 1622.13 1516.08 1621 1516.02 1619.86C1515.96 1618.72 1515.94 1617.41 1515.94 1615.94V1586.29H1519.36V1615.88C1519.36 1617.22 1519.37 1618.33 1519.39 1619.21C1519.43 1620.08 1519.63 1620.87 1520.01 1621.6C1520.71 1622.96 1521.84 1623.78 1523.37 1624.08C1524.9 1624.35 1526.86 1624.31 1529.24 1623.93V1627ZM1508.8 1598.24V1595.14H1529.24V1598.24H1508.8ZM1534.83 1627V1595.14H1537.92V1602.78L1537.16 1601.78C1537.51 1600.87 1537.95 1600.04 1538.48 1599.27C1539.03 1598.48 1539.59 1597.84 1540.16 1597.35C1541.01 1596.57 1542 1595.98 1543.14 1595.58C1544.28 1595.17 1545.44 1594.93 1546.6 1594.87C1547.76 1594.8 1548.81 1594.88 1549.75 1595.14V1598.36C1548.49 1598.06 1547.16 1598 1545.74 1598.18C1544.32 1598.36 1543 1598.97 1541.76 1600.01C1540.68 1600.95 1539.89 1602.05 1539.4 1603.31C1538.91 1604.55 1538.59 1605.86 1538.45 1607.23C1538.32 1608.59 1538.25 1609.92 1538.25 1611.22V1627H1534.83ZM1555.43 1588.71V1584.37H1558.82V1588.71H1555.43ZM1555.43 1627V1595.14H1558.82V1627H1555.43ZM1580.2 1627.89C1577.01 1627.89 1574.32 1627.18 1572.14 1625.76C1569.96 1624.33 1568.3 1622.35 1567.16 1619.83C1566.04 1617.29 1565.45 1614.37 1565.42 1611.07C1565.45 1607.71 1566.04 1604.77 1567.19 1602.25C1568.35 1599.71 1570.02 1597.75 1572.2 1596.35C1574.38 1594.95 1577.06 1594.25 1580.22 1594.25C1583.31 1594.25 1586.03 1595 1588.37 1596.5C1590.73 1597.97 1592.36 1600.01 1593.26 1602.6L1589.96 1603.81C1589.15 1601.83 1587.88 1600.29 1586.15 1599.21C1584.42 1598.11 1582.44 1597.56 1580.2 1597.56C1577.68 1597.56 1575.6 1598.14 1573.97 1599.3C1572.34 1600.44 1571.12 1602.02 1570.31 1604.05C1569.51 1606.07 1569.08 1608.41 1569.04 1611.07C1569.1 1615.14 1570.06 1618.42 1571.91 1620.89C1573.77 1623.35 1576.54 1624.58 1580.2 1624.58C1582.46 1624.58 1584.41 1624.06 1586.07 1623.02C1587.74 1621.98 1589.02 1620.46 1589.9 1618.47L1593.26 1619.62C1592.02 1622.32 1590.29 1624.37 1588.07 1625.79C1585.85 1627.19 1583.22 1627.89 1580.2 1627.89ZM1608.04 1627.89C1605.58 1627.89 1603.54 1627.45 1601.9 1626.59C1600.29 1625.72 1599.08 1624.58 1598.28 1623.16C1597.47 1621.73 1597.07 1620.18 1597.07 1618.5C1597.07 1616.69 1597.44 1615.18 1598.19 1613.96C1598.95 1612.74 1599.97 1611.76 1601.23 1611.01C1602.5 1610.26 1603.91 1609.7 1605.44 1609.33C1607.19 1608.94 1609.08 1608.6 1611.11 1608.33C1613.13 1608.03 1615.06 1607.78 1616.89 1607.56C1618.74 1607.34 1620.24 1607.16 1621.4 1607L1620.16 1607.74C1620.24 1604.29 1619.59 1601.74 1618.22 1600.07C1616.86 1598.38 1614.46 1597.53 1611.02 1597.53C1608.6 1597.53 1606.6 1598.08 1605.03 1599.18C1603.48 1600.26 1602.39 1601.94 1601.76 1604.23L1598.28 1603.25C1599 1600.36 1600.47 1598.14 1602.67 1596.59C1604.87 1595.03 1607.7 1594.25 1611.14 1594.25C1614.07 1594.25 1616.53 1594.83 1618.51 1595.97C1620.52 1597.11 1621.91 1598.71 1622.7 1600.77C1623.04 1601.62 1623.26 1602.61 1623.38 1603.75C1623.5 1604.87 1623.56 1606.01 1623.56 1607.15V1627H1620.46V1618.62L1621.61 1618.92C1620.65 1621.79 1618.96 1624 1616.57 1625.55C1614.17 1627.11 1611.32 1627.89 1608.04 1627.89ZM1608.22 1624.76C1610.38 1624.76 1612.28 1624.37 1613.91 1623.61C1615.54 1622.82 1616.86 1621.73 1617.86 1620.33C1618.89 1618.92 1619.54 1617.26 1619.81 1615.35C1620.01 1614.29 1620.12 1613.13 1620.14 1611.9C1620.15 1610.66 1620.16 1609.74 1620.16 1609.15L1621.64 1610.1C1620.36 1610.25 1618.83 1610.42 1617.04 1610.6C1615.27 1610.77 1613.46 1610.99 1611.61 1611.25C1609.76 1611.5 1608.09 1611.83 1606.59 1612.22C1605.67 1612.48 1604.74 1612.85 1603.79 1613.34C1602.87 1613.81 1602.09 1614.47 1601.46 1615.32C1600.85 1616.16 1600.55 1617.24 1600.55 1618.53C1600.55 1619.5 1600.78 1620.46 1601.26 1621.42C1601.75 1622.39 1602.55 1623.18 1603.67 1623.81C1604.8 1624.44 1606.31 1624.76 1608.22 1624.76ZM1631.31 1627V1583.63H1634.7V1627H1631.31Z" fill="black"/>
<path d="M2556.99 1489L2572.04 1446.52H2576.25L2591.3 1489H2587.7L2573.25 1448.29H2574.96L2560.59 1489H2556.99ZM2563.22 1478.32V1475.11H2585.05V1478.32H2563.22ZM2608.33 1489.89C2605.32 1489.89 2602.77 1489.15 2600.69 1487.67C2598.62 1486.18 2597.04 1484.16 2595.94 1481.62C2594.86 1479.07 2594.32 1476.2 2594.32 1473.01C2594.32 1469.86 2594.86 1467.02 2595.94 1464.49C2597.02 1461.95 2598.57 1459.94 2600.6 1458.47C2602.64 1456.99 2605.11 1456.25 2608 1456.25C2610.97 1456.25 2613.48 1456.98 2615.53 1458.44C2617.57 1459.89 2619.12 1461.89 2620.16 1464.43C2621.2 1466.94 2621.72 1469.81 2621.72 1473.01C2621.72 1476.2 2621.2 1479.06 2620.16 1481.6C2619.12 1484.13 2617.6 1486.15 2615.61 1487.64C2613.63 1489.14 2611.2 1489.89 2608.33 1489.89ZM2608.53 1486.64C2610.91 1486.64 2612.89 1486.05 2614.46 1484.87C2616.06 1483.67 2617.24 1482.05 2618 1480C2618.79 1477.94 2619.18 1475.61 2619.18 1473.01C2619.18 1470.4 2618.79 1468.06 2618 1466.02C2617.22 1463.97 2616.04 1462.38 2614.46 1461.24C2612.89 1460.08 2610.93 1459.5 2608.59 1459.5C2606.17 1459.5 2604.18 1460.1 2602.61 1461.3C2601.03 1462.48 2599.86 1464.09 2599.09 1466.14C2598.33 1468.16 2597.94 1470.45 2597.94 1473.01C2597.94 1475.59 2598.34 1477.91 2599.12 1479.97C2599.93 1482.02 2601.11 1483.64 2602.66 1484.84C2604.24 1486.04 2606.19 1486.64 2608.53 1486.64ZM2619.18 1489V1464.46H2618.89V1446.52H2622.28V1489H2619.18ZM2667.95 1489L2668.01 1467.58C2668.01 1465.01 2667.27 1462.99 2665.79 1461.54C2664.34 1460.06 2662.52 1459.32 2660.34 1459.32C2659.1 1459.32 2657.87 1459.61 2656.65 1460.18C2655.45 1460.75 2654.45 1461.67 2653.64 1462.95C2652.83 1464.23 2652.43 1465.96 2652.43 1468.14L2650.04 1467.76C2649.96 1465.44 2650.39 1463.42 2651.31 1461.71C2652.25 1459.98 2653.55 1458.64 2655.2 1457.7C2656.88 1456.76 2658.77 1456.28 2660.9 1456.28C2664.02 1456.28 2666.55 1457.25 2668.48 1459.18C2670.43 1461.1 2671.4 1463.74 2671.4 1467.08L2671.34 1489H2667.95ZM2630.04 1489V1457.14H2633.14V1464.31H2633.43V1489H2630.04ZM2649.01 1489L2649.07 1467.91C2649.07 1465.27 2648.35 1463.19 2646.91 1461.65C2645.48 1460.1 2643.61 1459.32 2641.31 1459.32C2638.97 1459.32 2637.07 1460.13 2635.62 1461.74C2634.16 1463.33 2633.43 1465.47 2633.43 1468.14L2631.07 1466.96C2631.07 1464.9 2631.55 1463.07 2632.49 1461.48C2633.43 1459.86 2634.72 1458.6 2636.35 1457.67C2638.01 1456.75 2639.89 1456.28 2642.02 1456.28C2643.93 1456.28 2645.67 1456.69 2647.24 1457.49C2648.81 1458.3 2650.07 1459.52 2651.02 1461.15C2651.96 1462.76 2652.43 1464.79 2652.43 1467.23L2652.37 1489H2649.01ZM2679.16 1450.71V1446.37H2682.56V1450.71H2679.16ZM2679.16 1489V1457.14H2682.56V1489H2679.16ZM2714.26 1489V1472.42C2714.26 1470.41 2714.05 1468.63 2713.64 1467.05C2713.24 1465.48 2712.63 1464.14 2711.81 1463.04C2711 1461.94 2709.98 1461.1 2708.74 1460.53C2707.52 1459.96 2706.07 1459.68 2704.4 1459.68C2702.67 1459.68 2701.17 1459.98 2699.89 1460.59C2698.63 1461.18 2697.59 1462.02 2696.76 1463.1C2695.96 1464.18 2695.35 1465.47 2694.93 1466.96C2694.54 1468.44 2694.34 1470.05 2694.34 1471.8L2691.66 1471.48C2691.66 1468.04 2692.24 1465.2 2693.4 1462.98C2694.58 1460.74 2696.16 1459.09 2698.15 1458.02C2700.14 1456.94 2702.37 1456.4 2704.85 1456.4C2706.6 1456.4 2708.16 1456.66 2709.54 1457.17C2710.93 1457.68 2712.14 1458.41 2713.16 1459.35C2714.19 1460.28 2715.03 1461.38 2715.7 1462.66C2716.37 1463.92 2716.86 1465.3 2717.18 1466.82C2717.51 1468.33 2717.68 1469.91 2717.68 1471.57V1489H2714.26ZM2690.92 1489V1457.14H2694.02V1464.31H2694.34V1489H2690.92Z" fill="black"/>
<path d="M2984.1 1859.89C2981.19 1859.89 2978.56 1859.4 2976.22 1858.44C2973.9 1857.48 2971.97 1856.11 2970.44 1854.34C2968.92 1852.57 2967.91 1850.46 2967.4 1848.03L2970.88 1847.44C2971.61 1850.27 2973.16 1852.5 2975.54 1854.13C2977.94 1855.76 2980.82 1856.58 2984.18 1856.58C2986.47 1856.58 2988.48 1856.22 2990.23 1855.49C2991.98 1854.76 2993.35 1853.74 2994.33 1852.42C2995.32 1851.08 2995.81 1849.53 2995.81 1847.76C2995.81 1846.48 2995.57 1845.41 2995.1 1844.54C2994.65 1843.68 2994.06 1842.97 2993.33 1842.42C2992.6 1841.85 2991.83 1841.4 2991 1841.06C2990.17 1840.71 2989.4 1840.42 2988.67 1840.21L2977.99 1837.02C2976.57 1836.61 2975.31 1836.1 2974.18 1835.49C2973.08 1834.86 2972.15 1834.14 2971.38 1833.33C2970.63 1832.51 2970.05 1831.57 2969.64 1830.53C2969.25 1829.49 2969.05 1828.33 2969.05 1827.05C2969.05 1824.77 2969.66 1822.77 2970.88 1821.06C2972.1 1819.35 2973.77 1818.02 2975.9 1817.08C2978.04 1816.12 2980.5 1815.63 2983.27 1815.63C2986.06 1815.65 2988.57 1816.18 2990.79 1817.2C2993.01 1818.2 2994.83 1819.63 2996.25 1821.48C2997.69 1823.32 2998.61 1825.52 2999.02 1828.05L2995.51 1828.67C2995.24 1826.73 2994.53 1825.03 2993.39 1823.57C2992.27 1822.12 2990.83 1820.98 2989.08 1820.18C2987.33 1819.37 2985.38 1818.97 2983.24 1818.97C2981.18 1818.95 2979.35 1819.29 2977.75 1820C2976.18 1820.71 2974.94 1821.66 2974.04 1822.86C2973.13 1824.06 2972.68 1825.42 2972.68 1826.93C2972.68 1828.51 2973.1 1829.77 2973.95 1830.71C2974.81 1831.63 2975.87 1832.36 2977.1 1832.89C2978.36 1833.42 2979.56 1833.86 2980.7 1834.19L2989.26 1836.73C2990.06 1836.96 2991.03 1837.3 2992.15 1837.73C2993.27 1838.16 2994.37 1838.78 2995.45 1839.59C2996.54 1840.38 2997.43 1841.43 2998.14 1842.75C2998.87 1844.04 2999.23 1845.68 2999.23 1847.64C2999.23 1849.55 2998.87 1851.26 2998.14 1852.78C2997.41 1854.29 2996.37 1855.58 2995.01 1856.64C2993.65 1857.68 2992.05 1858.48 2990.2 1859.03C2988.35 1859.6 2986.32 1859.89 2984.1 1859.89ZM3028.05 1859V1842.42C3028.05 1840.41 3027.85 1838.63 3027.44 1837.05C3027.04 1835.48 3026.43 1834.14 3025.61 1833.04C3024.8 1831.94 3023.78 1831.1 3022.54 1830.53C3021.32 1829.96 3019.87 1829.68 3018.2 1829.68C3016.47 1829.68 3014.97 1829.98 3013.69 1830.59C3012.43 1831.18 3011.39 1832.02 3010.56 1833.1C3009.75 1834.18 3009.15 1835.47 3008.73 1836.96C3008.34 1838.44 3008.14 1840.05 3008.14 1841.8L3005.46 1841.48C3005.46 1838.04 3006.04 1835.2 3007.2 1832.98C3008.38 1830.74 3009.96 1829.09 3011.95 1828.02C3013.93 1826.94 3016.17 1826.4 3018.64 1826.4C3020.39 1826.4 3021.96 1826.66 3023.33 1827.17C3024.73 1827.68 3025.94 1828.41 3026.96 1829.35C3027.99 1830.28 3028.83 1831.38 3029.5 1832.66C3030.17 1833.92 3030.66 1835.3 3030.98 1836.82C3031.31 1838.33 3031.48 1839.91 3031.48 1841.57V1859H3028.05ZM3004.72 1859V1816.52H3007.82V1841.06H3008.14V1859H3004.72ZM3039.21 1820.71V1816.37H3042.6V1820.71H3039.21ZM3039.21 1859V1827.14H3042.6V1859H3039.21ZM3064.09 1859.89C3061.05 1859.89 3058.41 1859.21 3056.19 1857.85C3053.97 1856.47 3052.24 1854.54 3051.03 1852.04C3049.81 1849.52 3049.2 1846.55 3049.2 1843.13C3049.2 1839.65 3049.8 1836.65 3051 1834.13C3052.22 1831.59 3053.93 1829.65 3056.13 1828.29C3058.35 1826.93 3060.99 1826.25 3064.03 1826.25C3067.12 1826.25 3069.76 1826.96 3071.94 1828.38C3074.14 1829.78 3075.82 1831.8 3076.96 1834.46C3078.12 1837.11 3078.67 1840.31 3078.61 1844.04H3075.07V1842.86C3074.97 1838.5 3073.99 1835.17 3072.12 1832.89C3070.25 1830.61 3067.57 1829.47 3064.09 1829.47C3060.49 1829.47 3057.71 1830.66 3055.75 1833.04C3053.8 1835.4 3052.82 1838.74 3052.82 1843.07C3052.82 1847.36 3053.8 1850.68 3055.75 1853.04C3057.71 1855.4 3060.48 1856.58 3064.03 1856.58C3066.49 1856.58 3068.64 1856.01 3070.47 1854.87C3072.31 1853.71 3073.78 1852.06 3074.86 1849.91L3077.93 1851.27C3076.65 1854.02 3074.8 1856.15 3072.38 1857.64C3069.96 1859.14 3067.2 1859.89 3064.09 1859.89ZM3051.53 1844.04V1840.98H3076.69V1844.04H3051.53ZM3085.22 1859V1815.63H3088.62V1859H3085.22ZM3109.22 1859.89C3106.22 1859.89 3103.67 1859.15 3101.58 1857.67C3099.52 1856.18 3097.94 1854.16 3096.83 1851.62C3095.75 1849.07 3095.21 1846.2 3095.21 1843.01C3095.21 1839.86 3095.75 1837.02 3096.83 1834.49C3097.92 1831.95 3099.47 1829.94 3101.5 1828.47C3103.54 1826.99 3106.01 1826.25 3108.9 1826.25C3111.87 1826.25 3114.38 1826.98 3116.42 1828.44C3118.47 1829.89 3120.01 1831.89 3121.05 1834.43C3122.1 1836.94 3122.62 1839.81 3122.62 1843.01C3122.62 1846.2 3122.1 1849.06 3121.05 1851.6C3120.01 1854.13 3118.5 1856.15 3116.51 1857.64C3114.52 1859.14 3112.1 1859.89 3109.22 1859.89ZM3109.43 1856.64C3111.81 1856.64 3113.79 1856.05 3115.36 1854.87C3116.95 1853.67 3118.13 1852.05 3118.9 1850C3119.69 1847.94 3120.08 1845.61 3120.08 1843.01C3120.08 1840.4 3119.69 1838.06 3118.9 1836.02C3118.11 1833.97 3116.93 1832.38 3115.36 1831.24C3113.79 1830.08 3111.83 1829.5 3109.49 1829.5C3107.07 1829.5 3105.07 1830.1 3103.5 1831.3C3101.93 1832.48 3100.76 1834.09 3099.99 1836.14C3099.22 1838.16 3098.84 1840.45 3098.84 1843.01C3098.84 1845.59 3099.23 1847.91 3100.02 1849.97C3100.83 1852.02 3102.01 1853.64 3103.56 1854.84C3105.13 1856.04 3107.09 1856.64 3109.43 1856.64ZM3120.08 1859V1834.46H3119.79V1816.52H3123.18V1859H3120.08ZM3142.71 1859.83C3139.03 1859.83 3135.99 1859.05 3133.59 1857.5C3131.21 1855.94 3129.74 1853.78 3129.17 1851.01L3132.65 1850.42C3133.14 1852.3 3134.3 1853.81 3136.13 1854.93C3137.96 1856.05 3140.2 1856.61 3142.86 1856.61C3145.49 1856.61 3147.58 1856.05 3149.14 1854.93C3150.69 1853.81 3151.47 1852.27 3151.47 1850.33C3151.47 1849.26 3151.22 1848.4 3150.73 1847.73C3150.26 1847.04 3149.32 1846.41 3147.9 1845.84C3146.48 1845.27 3144.38 1844.6 3141.59 1843.84C3138.64 1843.05 3136.33 1842.26 3134.65 1841.48C3133 1840.69 3131.83 1839.8 3131.14 1838.79C3130.47 1837.79 3130.14 1836.56 3130.14 1835.1C3130.14 1833.35 3130.64 1831.82 3131.65 1830.5C3132.65 1829.17 3134.04 1828.12 3135.83 1827.38C3137.64 1826.63 3139.73 1826.25 3142.09 1826.25C3144.45 1826.25 3146.57 1826.65 3148.46 1827.43C3150.35 1828.2 3151.87 1829.28 3153.03 1830.68C3154.19 1832.06 3154.86 1833.66 3155.04 1835.49L3151.56 1836.14C3151.22 1834.09 3150.19 1832.48 3148.46 1831.3C3146.73 1830.1 3144.57 1829.49 3141.97 1829.47C3139.51 1829.43 3137.51 1829.92 3135.95 1830.95C3134.4 1831.95 3133.62 1833.28 3133.62 1834.93C3133.62 1835.87 3133.89 1836.68 3134.42 1837.35C3134.97 1838 3135.93 1838.6 3137.31 1839.15C3138.69 1839.7 3140.63 1840.29 3143.15 1840.92C3146.22 1841.7 3148.61 1842.51 3150.32 1843.34C3152.05 1844.16 3153.27 1845.13 3153.98 1846.26C3154.68 1847.36 3155.04 1848.72 3155.04 1850.36C3155.04 1853.31 3153.94 1855.63 3151.73 1857.32C3149.55 1858.99 3146.54 1859.83 3142.71 1859.83Z" fill="black"/>
<path d="M3630.71 1163V1120.52H3634.13L3658.73 1156.95V1120.52H3662.16V1163H3658.73L3634.13 1126.51V1163H3630.71ZM3679.11 1163.89C3676.65 1163.89 3674.61 1163.45 3672.98 1162.59C3671.36 1161.72 3670.15 1160.58 3669.35 1159.16C3668.54 1157.73 3668.14 1156.18 3668.14 1154.5C3668.14 1152.69 3668.51 1151.18 3669.26 1149.96C3670.03 1148.74 3671.04 1147.76 3672.3 1147.01C3673.58 1146.26 3674.98 1145.7 3676.52 1145.33C3678.27 1144.94 3680.15 1144.6 3682.18 1144.33C3684.21 1144.03 3686.13 1143.78 3687.96 1143.56C3689.81 1143.34 3691.31 1143.16 3692.48 1143L3691.24 1143.74C3691.31 1140.29 3690.67 1137.74 3689.29 1136.07C3687.93 1134.38 3685.53 1133.53 3682.09 1133.53C3679.67 1133.53 3677.68 1134.08 3676.1 1135.18C3674.55 1136.26 3673.46 1137.94 3672.83 1140.23L3669.35 1139.25C3670.07 1136.36 3671.54 1134.14 3673.74 1132.59C3675.95 1131.03 3678.77 1130.25 3682.21 1130.25C3685.14 1130.25 3687.6 1130.83 3689.58 1131.97C3691.59 1133.11 3692.99 1134.71 3693.77 1136.77C3694.11 1137.62 3694.33 1138.61 3694.45 1139.75C3694.57 1140.87 3694.63 1142.01 3694.63 1143.15V1163H3691.53V1154.62L3692.68 1154.92C3691.72 1157.79 3690.04 1160 3687.64 1161.55C3685.24 1163.11 3682.4 1163.89 3679.11 1163.89ZM3679.29 1160.76C3681.45 1160.76 3683.35 1160.37 3684.98 1159.61C3686.61 1158.82 3687.93 1157.73 3688.94 1156.33C3689.96 1154.92 3690.61 1153.26 3690.88 1151.35C3691.08 1150.29 3691.19 1149.13 3691.21 1147.9C3691.23 1146.66 3691.24 1145.74 3691.24 1145.15L3692.71 1146.1C3691.43 1146.25 3689.9 1146.42 3688.11 1146.6C3686.34 1146.77 3684.53 1146.99 3682.68 1147.25C3680.83 1147.5 3679.16 1147.83 3677.67 1148.22C3676.74 1148.48 3675.81 1148.85 3674.86 1149.34C3673.94 1149.81 3673.16 1150.47 3672.53 1151.32C3671.92 1152.16 3671.62 1153.24 3671.62 1154.53C3671.62 1155.5 3671.85 1156.46 3672.33 1157.42C3672.82 1158.39 3673.62 1159.18 3674.75 1159.81C3675.87 1160.44 3677.38 1160.76 3679.29 1160.76ZM3709.25 1163L3697.69 1131.14H3701.2L3711.05 1158.37L3720.87 1131.14H3724.41L3712.85 1163H3709.25ZM3729.82 1124.71V1120.37H3733.22V1124.71H3729.82ZM3729.82 1163V1131.14H3733.22V1163H3729.82ZM3753.97 1178.05C3752.4 1178.05 3750.82 1177.81 3749.25 1177.34C3747.7 1176.88 3746.24 1176.14 3744.89 1175.1C3743.53 1174.07 3742.38 1172.71 3741.43 1170.99L3744.5 1169.17C3745.47 1171.13 3746.83 1172.54 3748.6 1173.38C3750.37 1174.23 3752.17 1174.65 3754 1174.65C3756.58 1174.65 3758.61 1174.17 3760.11 1173.21C3761.62 1172.26 3762.7 1170.84 3763.35 1168.93C3764 1167.04 3764.33 1164.69 3764.33 1161.88V1153.53H3764.68V1131.14H3767.78V1161.88C3767.78 1162.82 3767.76 1163.73 3767.72 1164.59C3767.68 1165.46 3767.59 1166.32 3767.45 1167.19C3767.1 1169.65 3766.37 1171.67 3765.27 1173.27C3764.17 1174.88 3762.67 1176.08 3760.79 1176.87C3758.92 1177.65 3756.65 1178.05 3753.97 1178.05ZM3753.82 1163.89C3750.82 1163.89 3748.27 1163.15 3746.18 1161.67C3744.12 1160.18 3742.54 1158.16 3741.43 1155.62C3740.35 1153.07 3739.81 1150.2 3739.81 1147.01C3739.81 1143.86 3740.35 1141.02 3741.43 1138.49C3742.52 1135.95 3744.07 1133.94 3746.1 1132.47C3748.14 1130.99 3750.61 1130.25 3753.5 1130.25C3756.47 1130.25 3758.98 1130.98 3761.02 1132.44C3763.07 1133.89 3764.61 1135.89 3765.65 1138.43C3766.7 1140.94 3767.22 1143.81 3767.22 1147.01C3767.22 1150.2 3766.7 1153.06 3765.65 1155.6C3764.61 1158.13 3763.1 1160.15 3761.11 1161.64C3759.12 1163.14 3756.7 1163.89 3753.82 1163.89ZM3754.03 1160.64C3756.41 1160.64 3758.39 1160.05 3759.96 1158.87C3761.55 1157.67 3762.73 1156.05 3763.5 1154C3764.29 1151.94 3764.68 1149.61 3764.68 1147.01C3764.68 1144.4 3764.29 1142.06 3763.5 1140.02C3762.71 1137.97 3761.53 1136.38 3759.96 1135.24C3758.39 1134.08 3756.43 1133.5 3754.09 1133.5C3751.67 1133.5 3749.67 1134.1 3748.1 1135.3C3746.53 1136.48 3745.36 1138.09 3744.59 1140.14C3743.82 1142.16 3743.44 1144.45 3743.44 1147.01C3743.44 1149.59 3743.83 1151.91 3744.62 1153.97C3745.43 1156.02 3746.61 1157.64 3748.16 1158.84C3749.73 1160.04 3751.69 1160.64 3754.03 1160.64ZM3784.74 1163.89C3782.28 1163.89 3780.24 1163.45 3778.6 1162.59C3776.99 1161.72 3775.78 1160.58 3774.98 1159.16C3774.17 1157.73 3773.77 1156.18 3773.77 1154.5C3773.77 1152.69 3774.14 1151.18 3774.89 1149.96C3775.65 1148.74 3776.67 1147.76 3777.93 1147.01C3779.2 1146.26 3780.61 1145.7 3782.14 1145.33C3783.9 1144.94 3785.78 1144.6 3787.81 1144.33C3789.83 1144.03 3791.76 1143.78 3793.59 1143.56C3795.44 1143.34 3796.94 1143.16 3798.1 1143L3796.87 1143.74C3796.94 1140.29 3796.29 1137.74 3794.92 1136.07C3793.56 1134.38 3791.16 1133.53 3787.72 1133.53C3785.3 1133.53 3783.31 1134.08 3781.73 1135.18C3780.18 1136.26 3779.09 1137.94 3778.46 1140.23L3774.98 1139.25C3775.7 1136.36 3777.17 1134.14 3779.37 1132.59C3781.57 1131.03 3784.4 1130.25 3787.84 1130.25C3790.77 1130.25 3793.23 1130.83 3795.21 1131.97C3797.22 1133.11 3798.62 1134.71 3799.4 1136.77C3799.74 1137.62 3799.96 1138.61 3800.08 1139.75C3800.2 1140.87 3800.26 1142.01 3800.26 1143.15V1163H3797.16V1154.62L3798.31 1154.92C3797.35 1157.79 3795.67 1160 3793.27 1161.55C3790.87 1163.11 3788.03 1163.89 3784.74 1163.89ZM3784.92 1160.76C3787.08 1160.76 3788.98 1160.37 3790.61 1159.61C3792.24 1158.82 3793.56 1157.73 3794.56 1156.33C3795.59 1154.92 3796.24 1153.26 3796.51 1151.35C3796.71 1150.29 3796.82 1149.13 3796.84 1147.9C3796.86 1146.66 3796.87 1145.74 3796.87 1145.15L3798.34 1146.1C3797.06 1146.25 3795.53 1146.42 3793.74 1146.6C3791.97 1146.77 3790.16 1146.99 3788.31 1147.25C3786.46 1147.5 3784.79 1147.83 3783.3 1148.22C3782.37 1148.48 3781.44 1148.85 3780.49 1149.34C3779.57 1149.81 3778.79 1150.47 3778.16 1151.32C3777.55 1152.16 3777.25 1153.24 3777.25 1154.53C3777.25 1155.5 3777.48 1156.46 3777.96 1157.42C3778.45 1158.39 3779.25 1159.18 3780.37 1159.81C3781.5 1160.44 3783.01 1160.76 3784.92 1160.76ZM3824.32 1163C3822.63 1163.37 3820.96 1163.51 3819.31 1163.41C3817.65 1163.33 3816.18 1162.97 3814.88 1162.32C3813.6 1161.65 3812.64 1160.63 3811.99 1159.25C3811.46 1158.13 3811.16 1157 3811.11 1155.86C3811.05 1154.72 3811.02 1153.41 3811.02 1151.94V1122.29H3814.44V1151.88C3814.44 1153.22 3814.45 1154.33 3814.47 1155.21C3814.51 1156.08 3814.71 1156.87 3815.09 1157.6C3815.8 1158.96 3816.92 1159.78 3818.45 1160.08C3819.98 1160.35 3821.94 1160.31 3824.32 1159.93V1163ZM3803.88 1134.24V1131.14H3824.32V1134.24H3803.88ZM3830.5 1124.71V1120.37H3833.89V1124.71H3830.5ZM3830.5 1163V1131.14H3833.89V1163H3830.5ZM3855.32 1163.89C3852.16 1163.89 3849.47 1163.17 3847.27 1161.73C3845.07 1160.3 3843.39 1158.31 3842.23 1155.77C3841.07 1153.24 3840.49 1150.31 3840.49 1147.01C3840.49 1143.69 3841.08 1140.77 3842.26 1138.25C3843.44 1135.71 3845.13 1133.75 3847.33 1132.35C3849.55 1130.95 3852.22 1130.25 3855.32 1130.25C3858.49 1130.25 3861.17 1130.97 3863.38 1132.41C3865.6 1133.82 3867.28 1135.79 3868.42 1138.31C3869.58 1140.83 3870.16 1143.73 3870.16 1147.01C3870.16 1150.37 3869.58 1153.32 3868.42 1155.86C3867.26 1158.38 3865.57 1160.34 3863.35 1161.76C3861.13 1163.18 3858.45 1163.89 3855.32 1163.89ZM3855.32 1160.58C3859.08 1160.58 3861.88 1159.32 3863.73 1156.8C3865.6 1154.29 3866.53 1151.02 3866.53 1147.01C3866.53 1142.92 3865.6 1139.66 3863.73 1137.22C3861.86 1134.78 3859.06 1133.56 3855.32 1133.56C3852.79 1133.56 3850.69 1134.14 3849.04 1135.3C3847.39 1136.44 3846.15 1138.02 3845.32 1140.05C3844.52 1142.05 3844.11 1144.38 3844.11 1147.01C3844.11 1151.1 3845.06 1154.39 3846.95 1156.86C3848.85 1159.34 3851.65 1160.58 3855.32 1160.58ZM3899.49 1163V1146.42C3899.49 1144.41 3899.28 1142.63 3898.87 1141.05C3898.47 1139.48 3897.86 1138.14 3897.04 1137.04C3896.23 1135.94 3895.21 1135.1 3893.97 1134.53C3892.75 1133.96 3891.31 1133.68 3889.63 1133.68C3887.9 1133.68 3886.4 1133.98 3885.12 1134.59C3883.86 1135.18 3882.82 1136.02 3881.99 1137.1C3881.19 1138.18 3880.58 1139.47 3880.16 1140.96C3879.77 1142.44 3879.57 1144.05 3879.57 1145.8L3876.89 1145.48C3876.89 1142.04 3877.47 1139.2 3878.63 1136.98C3879.81 1134.74 3881.39 1133.09 3883.38 1132.02C3885.37 1130.94 3887.6 1130.4 3890.08 1130.4C3891.83 1130.4 3893.39 1130.66 3894.77 1131.17C3896.16 1131.68 3897.37 1132.41 3898.4 1133.35C3899.42 1134.28 3900.26 1135.38 3900.93 1136.66C3901.6 1137.92 3902.09 1139.3 3902.41 1140.82C3902.74 1142.33 3902.91 1143.91 3902.91 1145.57V1163H3899.49ZM3876.15 1163V1131.14H3879.25V1138.31H3879.57V1163H3876.15Z" fill="black"/>
<path d="M2765.19 1106.89C2760.96 1106.89 2757.41 1105.95 2754.54 1104.08C2751.67 1102.19 2749.51 1099.59 2748.05 1096.26C2746.59 1092.94 2745.87 1089.11 2745.87 1084.76C2745.87 1080.41 2746.59 1076.58 2748.05 1073.25C2749.51 1069.93 2751.67 1067.34 2754.54 1065.47C2757.41 1063.58 2760.96 1062.63 2765.19 1062.63C2769.42 1062.63 2772.96 1063.58 2775.81 1065.47C2778.68 1067.34 2780.84 1069.93 2782.3 1073.25C2783.76 1076.58 2784.48 1080.41 2784.48 1084.76C2784.48 1089.11 2783.76 1092.94 2782.3 1096.26C2780.84 1099.59 2778.68 1102.19 2775.81 1104.08C2772.96 1105.95 2769.42 1106.89 2765.19 1106.89ZM2765.19 1103.55C2768.67 1103.57 2771.57 1102.78 2773.89 1101.19C2776.21 1099.58 2777.95 1097.36 2779.11 1094.52C2780.27 1091.69 2780.85 1088.44 2780.85 1084.76C2780.85 1081.08 2780.27 1077.83 2779.11 1075C2777.95 1072.16 2776.21 1069.95 2773.89 1068.36C2771.57 1066.76 2768.67 1065.97 2765.19 1065.97C2761.71 1065.95 2758.81 1066.74 2756.49 1068.33C2754.19 1069.92 2752.46 1072.14 2751.3 1075C2750.13 1077.83 2749.54 1081.08 2749.5 1084.76C2749.46 1088.44 2750.02 1091.69 2751.18 1094.52C2752.36 1097.34 2754.12 1099.55 2756.46 1101.16C2758.8 1102.75 2761.71 1103.55 2765.19 1103.55ZM2788.72 1106L2788.78 1102.75L2808.31 1085.03C2810.04 1083.47 2811.17 1081.99 2811.7 1080.57C2812.23 1079.14 2812.5 1077.6 2812.5 1075.97C2812.5 1074.12 2812.06 1072.44 2811.17 1070.92C2810.29 1069.41 2809.09 1068.21 2807.57 1067.33C2806.08 1066.42 2804.4 1065.97 2802.53 1065.97C2800.62 1065.97 2798.91 1066.43 2797.4 1067.35C2795.88 1068.28 2794.68 1069.5 2793.8 1071.01C2792.93 1072.53 2792.5 1074.18 2792.5 1075.97H2789.08C2789.08 1073.47 2789.68 1071.22 2790.88 1069.21C2792.08 1067.19 2793.69 1065.58 2795.71 1064.4C2797.76 1063.22 2800.04 1062.63 2802.56 1062.63C2805.1 1062.63 2807.37 1063.24 2809.37 1064.46C2811.4 1065.66 2813 1067.28 2814.18 1069.3C2815.36 1071.33 2815.95 1073.56 2815.95 1076C2815.95 1077.69 2815.75 1079.2 2815.36 1080.54C2814.99 1081.86 2814.39 1083.1 2813.56 1084.26C2812.74 1085.4 2811.67 1086.55 2810.38 1087.71L2791.94 1104.44L2791.23 1102.67H2815.95V1106H2788.72Z" fill="black"/>
<path d="M2951.37 624L2939.19 581.52H2942.7L2953.11 618.041L2963.5 581.52H2967.07L2977.48 618.041L2987.86 581.52H2991.43L2979.22 624H2975.74L2965.3 587.597L2954.85 624H2951.37ZM3005.79 624.885C3002.74 624.885 3000.1 624.207 2997.88 622.849C2995.66 621.473 2993.94 619.536 2992.72 617.038C2991.5 614.521 2990.89 611.551 2990.89 608.129C2990.89 604.648 2991.49 601.649 2992.69 599.131C2993.91 596.594 2995.62 594.647 2997.82 593.29C3000.04 591.933 3002.68 591.255 3005.73 591.255C3008.82 591.255 3011.45 591.963 3013.63 593.379C3015.84 594.775 3017.51 596.801 3018.65 599.456C3019.81 602.111 3020.36 605.307 3020.3 609.043H3016.76V607.863C3016.66 603.497 3015.68 600.174 3013.81 597.892C3011.94 595.611 3009.27 594.47 3005.79 594.47C3002.19 594.47 2999.41 595.66 2997.44 598.04C2995.49 600.4 2994.52 603.743 2994.52 608.07C2994.52 612.357 2995.49 615.681 2997.44 618.041C2999.41 620.401 3002.17 621.581 3005.73 621.581C3008.19 621.581 3010.33 621.011 3012.16 619.87C3014.01 618.71 3015.47 617.058 3016.55 614.914L3019.62 616.271C3018.34 619.024 3016.5 621.148 3014.08 622.643C3011.66 624.138 3008.89 624.885 3005.79 624.885ZM2993.22 609.043V605.975H3018.38V609.043H2993.22ZM3034.95 624.885C3032.5 624.885 3030.45 624.452 3028.82 623.587C3027.21 622.722 3026 621.581 3025.19 620.165C3024.38 618.729 3023.98 617.176 3023.98 615.504C3023.98 613.695 3024.35 612.18 3025.1 610.961C3025.87 609.742 3026.88 608.758 3028.14 608.011C3029.42 607.264 3030.82 606.703 3032.36 606.329C3034.11 605.936 3036 605.602 3038.02 605.326C3040.05 605.031 3041.98 604.776 3043.8 604.559C3045.65 604.343 3047.16 604.156 3048.32 603.999L3047.08 604.736C3047.16 601.295 3046.51 598.738 3045.13 597.066C3043.78 595.375 3041.38 594.529 3037.93 594.529C3035.52 594.529 3033.52 595.08 3031.95 596.181C3030.39 597.263 3029.3 598.945 3028.67 601.226L3025.19 600.252C3025.92 597.361 3027.38 595.139 3029.59 593.585C3031.79 592.032 3034.61 591.255 3038.05 591.255C3040.98 591.255 3043.44 591.825 3045.43 592.966C3047.43 594.107 3048.83 595.709 3049.62 597.774C3049.95 598.62 3050.18 599.613 3050.29 600.754C3050.41 601.875 3050.47 603.006 3050.47 604.146V624H3047.37V615.622L3048.52 615.917C3047.56 618.788 3045.88 621.001 3043.48 622.554C3041.08 624.108 3038.24 624.885 3034.95 624.885ZM3035.13 621.758C3037.29 621.758 3039.19 621.374 3040.83 620.607C3042.46 619.821 3043.78 618.729 3044.78 617.333C3045.8 615.917 3046.45 614.255 3046.73 612.347C3046.92 611.285 3047.03 610.135 3047.05 608.896C3047.07 607.657 3047.08 606.742 3047.08 606.152L3048.55 607.096C3047.28 607.254 3045.74 607.421 3043.95 607.598C3042.18 607.775 3040.37 607.991 3038.52 608.247C3036.68 608.503 3035 608.827 3033.51 609.22C3032.58 609.476 3031.65 609.85 3030.71 610.341C3029.78 610.813 3029.01 611.472 3028.38 612.318C3027.77 613.164 3027.46 614.235 3027.46 615.533C3027.46 616.497 3027.7 617.461 3028.17 618.424C3028.66 619.388 3029.47 620.185 3030.59 620.814C3031.71 621.443 3033.22 621.758 3035.13 621.758ZM3071.58 624.885C3068.71 624.885 3066.28 624.138 3064.3 622.643C3062.31 621.148 3060.8 619.132 3059.76 616.595C3058.71 614.058 3058.19 611.197 3058.19 608.011C3058.19 604.805 3058.71 601.944 3059.76 599.426C3060.8 596.889 3062.34 594.893 3064.39 593.438C3066.43 591.983 3068.94 591.255 3071.91 591.255C3074.8 591.255 3077.27 591.992 3079.31 593.467C3081.36 594.942 3082.91 596.948 3083.97 599.485C3085.06 602.022 3085.6 604.864 3085.6 608.011C3085.6 611.197 3085.05 614.068 3083.95 616.625C3082.86 619.162 3081.28 621.178 3079.2 622.672C3077.13 624.148 3074.59 624.885 3071.58 624.885ZM3057.63 638.16V592.14H3060.73V616.684H3061.02V638.16H3057.63ZM3071.38 621.64C3073.72 621.64 3075.67 621.04 3077.22 619.84C3078.79 618.641 3079.97 617.018 3080.76 614.973C3081.57 612.908 3081.97 610.587 3081.97 608.011C3081.97 605.454 3081.58 603.163 3080.79 601.137C3080.02 599.092 3078.85 597.479 3077.28 596.299C3075.72 595.1 3073.74 594.5 3071.32 594.5C3068.98 594.5 3067.02 595.08 3065.45 596.24C3063.88 597.381 3062.7 598.974 3061.91 601.019C3061.12 603.065 3060.73 605.395 3060.73 608.011C3060.73 610.607 3061.11 612.937 3061.88 615.002C3062.67 617.048 3063.85 618.67 3065.42 619.87C3067.01 621.05 3069 621.64 3071.38 621.64ZM3104.66 624.885C3101.49 624.885 3098.8 624.167 3096.6 622.731C3094.4 621.296 3092.72 619.309 3091.56 616.772C3090.4 614.235 3089.82 611.315 3089.82 608.011C3089.82 604.687 3090.41 601.767 3091.59 599.249C3092.77 596.712 3094.46 594.746 3096.66 593.349C3098.88 591.953 3101.55 591.255 3104.66 591.255C3107.82 591.255 3110.51 591.973 3112.71 593.408C3114.93 594.824 3116.61 596.791 3117.75 599.308C3118.91 601.826 3119.49 604.727 3119.49 608.011C3119.49 611.374 3118.91 614.324 3117.75 616.861C3116.59 619.378 3114.9 621.345 3112.68 622.761C3110.46 624.177 3107.78 624.885 3104.66 624.885ZM3104.66 621.581C3108.41 621.581 3111.21 620.322 3113.06 617.805C3114.93 615.288 3115.87 612.023 3115.87 608.011C3115.87 603.92 3114.93 600.656 3113.06 598.217C3111.19 595.778 3108.39 594.559 3104.66 594.559C3102.12 594.559 3100.02 595.139 3098.37 596.299C3096.72 597.44 3095.48 599.023 3094.65 601.049C3093.85 603.055 3093.45 605.376 3093.45 608.011C3093.45 612.102 3094.39 615.386 3096.28 617.864C3098.18 620.342 3100.98 621.581 3104.66 621.581ZM3148.82 624V607.421C3148.82 605.415 3148.61 603.625 3148.2 602.052C3147.81 600.479 3147.2 599.141 3146.37 598.04C3145.56 596.939 3144.54 596.103 3143.3 595.532C3142.08 594.962 3140.64 594.677 3138.97 594.677C3137.23 594.677 3135.73 594.982 3134.45 595.591C3133.19 596.181 3132.15 597.017 3131.33 598.099C3130.52 599.181 3129.91 600.469 3129.5 601.963C3129.1 603.438 3128.91 605.051 3128.91 606.801L3126.22 606.477C3126.22 603.035 3126.8 600.203 3127.96 597.981C3129.14 595.739 3130.73 594.087 3132.71 593.025C3134.7 591.943 3136.93 591.402 3139.41 591.402C3141.16 591.402 3142.72 591.658 3144.1 592.17C3145.49 592.681 3146.7 593.408 3147.73 594.353C3148.75 595.277 3149.6 596.378 3150.26 597.656C3150.93 598.915 3151.42 600.302 3151.74 601.816C3152.07 603.33 3152.24 604.913 3152.24 606.565V624H3148.82ZM3125.48 624V592.14H3128.58V599.308H3128.91V624H3125.48ZM3171.15 624.826C3167.47 624.826 3164.44 624.049 3162.04 622.495C3159.66 620.942 3158.18 618.778 3157.61 616.005L3161.09 615.415C3161.58 617.303 3162.74 618.808 3164.57 619.929C3166.4 621.05 3168.64 621.61 3171.3 621.61C3173.93 621.61 3176.03 621.05 3177.58 619.929C3179.14 618.808 3179.91 617.274 3179.91 615.327C3179.91 614.265 3179.67 613.4 3179.18 612.731C3178.7 612.043 3177.76 611.413 3176.34 610.843C3174.93 610.273 3172.82 609.604 3170.03 608.837C3167.08 608.05 3164.77 607.264 3163.1 606.477C3161.45 605.69 3160.28 604.795 3159.59 603.792C3158.92 602.789 3158.58 601.56 3158.58 600.105C3158.58 598.355 3159.09 596.821 3160.09 595.503C3161.09 594.166 3162.49 593.123 3164.28 592.376C3166.09 591.629 3168.17 591.255 3170.53 591.255C3172.89 591.255 3175.02 591.648 3176.9 592.435C3178.79 593.202 3180.32 594.284 3181.48 595.68C3182.64 597.057 3183.31 598.659 3183.48 600.488L3180 601.137C3179.67 599.092 3178.64 597.479 3176.9 596.299C3175.17 595.1 3173.01 594.49 3170.41 594.47C3167.96 594.431 3165.95 594.923 3164.4 595.945C3162.84 596.948 3162.07 598.276 3162.07 599.928C3162.07 600.872 3162.33 601.678 3162.86 602.347C3163.41 602.996 3164.38 603.596 3165.75 604.146C3167.13 604.697 3169.08 605.287 3171.59 605.916C3174.66 606.703 3177.05 607.509 3178.76 608.335C3180.49 609.161 3181.71 610.135 3182.42 611.256C3183.13 612.357 3183.48 613.724 3183.48 615.356C3183.48 618.306 3182.38 620.627 3180.18 622.318C3178 623.99 3174.99 624.826 3171.15 624.826Z" fill="black"/>
<path d="M1364.14 1056V1013.52H1367.3L1384.71 1051.1L1401.93 1013.52H1405.21V1055.94H1401.87V1021.34L1386.06 1056H1383.29L1367.45 1021.34V1056H1364.14ZM1426.09 1056.89C1423.04 1056.89 1420.41 1056.21 1418.19 1054.85C1415.96 1053.47 1414.24 1051.54 1413.02 1049.04C1411.8 1046.52 1411.19 1043.55 1411.19 1040.13C1411.19 1036.65 1411.79 1033.65 1412.99 1031.13C1414.21 1028.59 1415.92 1026.65 1418.13 1025.29C1420.35 1023.93 1422.98 1023.25 1426.03 1023.25C1429.12 1023.25 1431.76 1023.96 1433.94 1025.38C1436.14 1026.78 1437.81 1028.8 1438.95 1031.46C1440.11 1034.11 1440.66 1037.31 1440.61 1041.04H1437.07V1039.86C1436.97 1035.5 1435.98 1032.17 1434.12 1029.89C1432.25 1027.61 1429.57 1026.47 1426.09 1026.47C1422.49 1026.47 1419.71 1027.66 1417.74 1030.04C1415.8 1032.4 1414.82 1035.74 1414.82 1040.07C1414.82 1044.36 1415.8 1047.68 1417.74 1050.04C1419.71 1052.4 1422.47 1053.58 1426.03 1053.58C1428.49 1053.58 1430.63 1053.01 1432.46 1051.87C1434.31 1050.71 1435.78 1049.06 1436.86 1046.91L1439.93 1048.27C1438.65 1051.02 1436.8 1053.15 1434.38 1054.64C1431.96 1056.14 1429.2 1056.89 1426.09 1056.89ZM1413.52 1041.04V1037.98H1438.69V1041.04H1413.52ZM1458.87 1056.89C1455.86 1056.89 1453.32 1056.15 1451.23 1054.67C1449.17 1053.18 1447.59 1051.16 1446.48 1048.62C1445.4 1046.07 1444.86 1043.2 1444.86 1040.01C1444.86 1036.86 1445.4 1034.02 1446.48 1031.49C1447.57 1028.95 1449.12 1026.94 1451.14 1025.47C1453.19 1023.99 1455.66 1023.25 1458.55 1023.25C1461.52 1023.25 1464.03 1023.98 1466.07 1025.44C1468.12 1026.89 1469.66 1028.89 1470.7 1031.43C1471.75 1033.94 1472.27 1036.81 1472.27 1040.01C1472.27 1043.2 1471.75 1046.06 1470.7 1048.6C1469.66 1051.13 1468.15 1053.15 1466.16 1054.64C1464.17 1056.14 1461.75 1056.89 1458.87 1056.89ZM1459.08 1053.64C1461.46 1053.64 1463.44 1053.05 1465.01 1051.87C1466.6 1050.67 1467.78 1049.05 1468.55 1047C1469.34 1044.94 1469.73 1042.61 1469.73 1040.01C1469.73 1037.4 1469.34 1035.06 1468.55 1033.02C1467.76 1030.97 1466.58 1029.38 1465.01 1028.24C1463.44 1027.08 1461.48 1026.5 1459.14 1026.5C1456.72 1026.5 1454.72 1027.1 1453.15 1028.3C1451.58 1029.48 1450.41 1031.09 1449.64 1033.14C1448.87 1035.16 1448.49 1037.45 1448.49 1040.01C1448.49 1042.59 1448.88 1044.91 1449.67 1046.97C1450.48 1049.02 1451.66 1050.64 1453.21 1051.84C1454.78 1053.04 1456.74 1053.64 1459.08 1053.64ZM1469.73 1056V1031.46H1469.43V1013.52H1472.83V1056H1469.73ZM1494.54 1056.89C1491.67 1056.89 1489.24 1056.14 1487.25 1054.64C1485.27 1053.15 1483.75 1051.13 1482.71 1048.6C1481.67 1046.06 1481.15 1043.2 1481.15 1040.01C1481.15 1036.81 1481.67 1033.94 1482.71 1031.43C1483.75 1028.89 1485.3 1026.89 1487.34 1025.44C1489.39 1023.98 1491.89 1023.25 1494.86 1023.25C1497.76 1023.25 1500.22 1023.99 1502.27 1025.47C1504.31 1026.94 1505.87 1028.95 1506.93 1031.49C1508.01 1034.02 1508.55 1036.86 1508.55 1040.01C1508.55 1043.2 1508 1046.07 1506.9 1048.62C1505.82 1051.16 1504.24 1053.18 1502.15 1054.67C1500.09 1056.15 1497.55 1056.89 1494.54 1056.89ZM1480.59 1056V1013.52H1483.98V1031.46H1483.68V1056H1480.59ZM1494.33 1053.64C1496.67 1053.64 1498.62 1053.04 1500.17 1051.84C1501.75 1050.64 1502.93 1049.02 1503.71 1046.97C1504.52 1044.91 1504.92 1042.59 1504.92 1040.01C1504.92 1037.45 1504.53 1035.16 1503.74 1033.14C1502.98 1031.09 1501.81 1029.48 1500.23 1028.3C1498.68 1027.1 1496.69 1026.5 1494.27 1026.5C1491.93 1026.5 1489.98 1027.08 1488.4 1028.24C1486.83 1029.38 1485.65 1030.97 1484.86 1033.02C1484.08 1035.06 1483.68 1037.4 1483.68 1040.01C1483.68 1042.61 1484.07 1044.94 1484.83 1047C1485.62 1049.05 1486.8 1050.67 1488.37 1051.87C1489.97 1053.05 1491.95 1053.64 1494.33 1053.64ZM1523.75 1056.89C1521.29 1056.89 1519.24 1056.45 1517.61 1055.59C1516 1054.72 1514.79 1053.58 1513.98 1052.16C1513.17 1050.73 1512.77 1049.18 1512.77 1047.5C1512.77 1045.69 1513.15 1044.18 1513.89 1042.96C1514.66 1041.74 1515.67 1040.76 1516.93 1040.01C1518.21 1039.26 1519.62 1038.7 1521.15 1038.33C1522.9 1037.94 1524.79 1037.6 1526.81 1037.33C1528.84 1037.03 1530.77 1036.78 1532.6 1036.56C1534.44 1036.34 1535.95 1036.16 1537.11 1036L1535.87 1036.74C1535.95 1033.29 1535.3 1030.74 1533.92 1029.07C1532.57 1027.38 1530.17 1026.53 1526.73 1026.53C1524.31 1026.53 1522.31 1027.08 1520.74 1028.18C1519.18 1029.26 1518.09 1030.94 1517.46 1033.23L1513.98 1032.25C1514.71 1029.36 1516.17 1027.14 1518.38 1025.59C1520.58 1024.03 1523.4 1023.25 1526.84 1023.25C1529.77 1023.25 1532.23 1023.83 1534.22 1024.97C1536.22 1026.11 1537.62 1027.71 1538.41 1029.77C1538.74 1030.62 1538.97 1031.61 1539.09 1032.75C1539.2 1033.87 1539.26 1035.01 1539.26 1036.15V1056H1536.17V1047.62L1537.32 1047.92C1536.35 1050.79 1534.67 1053 1532.27 1054.55C1529.87 1056.11 1527.03 1056.89 1523.75 1056.89ZM1523.92 1053.76C1526.09 1053.76 1527.98 1053.37 1529.62 1052.61C1531.25 1051.82 1532.57 1050.73 1533.57 1049.33C1534.59 1047.92 1535.24 1046.26 1535.52 1044.35C1535.71 1043.29 1535.82 1042.13 1535.84 1040.9C1535.86 1039.66 1535.87 1038.74 1535.87 1038.15L1537.35 1039.1C1536.07 1039.25 1534.53 1039.42 1532.74 1039.6C1530.97 1039.77 1529.16 1039.99 1527.32 1040.25C1525.47 1040.5 1523.79 1040.83 1522.3 1041.22C1521.38 1041.48 1520.44 1041.85 1519.5 1042.34C1518.57 1042.81 1517.8 1043.47 1517.17 1044.32C1516.56 1045.16 1516.25 1046.24 1516.25 1047.53C1516.25 1048.5 1516.49 1049.46 1516.96 1050.42C1517.45 1051.39 1518.26 1052.18 1519.38 1052.81C1520.5 1053.44 1522.01 1053.76 1523.92 1053.76ZM1549.3 1070.16L1555.49 1053.49L1555.55 1058.45L1541.6 1024.14H1545.23L1557.2 1053.93H1555.32L1566.2 1024.14H1569.77L1552.84 1070.16H1549.3Z" fill="black"/>
<path d="M1005.13 1221.89C1002.22 1221.89 999.597 1221.4 997.257 1220.44C994.936 1219.48 993.009 1218.11 991.475 1216.34C989.96 1214.57 988.947 1212.46 988.436 1210.03L991.917 1209.44C992.645 1212.27 994.198 1214.5 996.578 1216.13C998.977 1217.76 1001.86 1218.58 1005.22 1218.58C1007.5 1218.58 1009.52 1218.22 1011.27 1217.49C1013.02 1216.76 1014.39 1215.74 1015.37 1214.42C1016.35 1213.08 1016.84 1211.53 1016.84 1209.76C1016.84 1208.48 1016.61 1207.41 1016.14 1206.54C1015.68 1205.68 1015.09 1204.97 1014.37 1204.42C1013.64 1203.85 1012.86 1203.4 1012.04 1203.06C1011.21 1202.71 1010.43 1202.42 1009.71 1202.21L999.027 1199.02C997.611 1198.61 996.342 1198.1 995.221 1197.49C994.12 1196.86 993.186 1196.14 992.419 1195.33C991.671 1194.51 991.091 1193.57 990.678 1192.53C990.285 1191.49 990.088 1190.33 990.088 1189.05C990.088 1186.77 990.698 1184.77 991.917 1183.06C993.136 1181.35 994.808 1180.02 996.932 1179.08C999.076 1178.12 1001.53 1177.63 1004.31 1177.63C1007.1 1177.65 1009.61 1178.18 1011.83 1179.2C1014.05 1180.2 1015.87 1181.63 1017.29 1183.48C1018.72 1185.32 1019.65 1187.52 1020.06 1190.05L1016.55 1190.67C1016.27 1188.73 1015.57 1187.03 1014.43 1185.57C1013.3 1184.12 1011.87 1182.98 1010.12 1182.18C1008.37 1181.37 1006.42 1180.97 1004.28 1180.97C1002.21 1180.95 1000.38 1181.29 998.791 1182C997.217 1182.71 995.978 1183.66 995.074 1184.86C994.169 1186.06 993.717 1187.42 993.717 1188.93C993.717 1190.51 994.139 1191.77 994.985 1192.71C995.85 1193.63 996.903 1194.36 998.142 1194.89C999.4 1195.42 1000.6 1195.86 1001.74 1196.19L1010.3 1198.73C1011.1 1198.96 1012.07 1199.3 1013.19 1199.73C1014.31 1200.16 1015.41 1200.78 1016.49 1201.59C1017.57 1202.38 1018.47 1203.43 1019.18 1204.75C1019.9 1206.04 1020.27 1207.68 1020.27 1209.64C1020.27 1211.55 1019.9 1213.26 1019.18 1214.78C1018.45 1216.29 1017.41 1217.58 1016.05 1218.64C1014.69 1219.68 1013.09 1220.48 1011.24 1221.03C1009.39 1221.6 1007.36 1221.89 1005.13 1221.89ZM1038.88 1221.89C1035.84 1221.89 1033.2 1221.21 1030.98 1219.85C1028.76 1218.47 1027.04 1216.54 1025.82 1214.04C1024.6 1211.52 1023.99 1208.55 1023.99 1205.13C1023.99 1201.65 1024.59 1198.65 1025.79 1196.13C1027.01 1193.59 1028.72 1191.65 1030.92 1190.29C1033.14 1188.93 1035.78 1188.25 1038.83 1188.25C1041.91 1188.25 1044.55 1188.96 1046.73 1190.38C1048.93 1191.78 1050.61 1193.8 1051.75 1196.46C1052.91 1199.11 1053.46 1202.31 1053.4 1206.04H1049.86V1204.86C1049.76 1200.5 1048.78 1197.17 1046.91 1194.89C1045.04 1192.61 1042.37 1191.47 1038.88 1191.47C1035.29 1191.47 1032.5 1192.66 1030.54 1195.04C1028.59 1197.4 1027.62 1200.74 1027.62 1205.07C1027.62 1209.36 1028.59 1212.68 1030.54 1215.04C1032.5 1217.4 1035.27 1218.58 1038.83 1218.58C1041.28 1218.58 1043.43 1218.01 1045.26 1216.87C1047.11 1215.71 1048.57 1214.06 1049.65 1211.91L1052.72 1213.27C1051.44 1216.02 1049.59 1218.15 1047.17 1219.64C1044.76 1221.14 1041.99 1221.89 1038.88 1221.89ZM1026.32 1206.04V1202.98H1051.48V1206.04H1026.32ZM1072.43 1221.89C1069.25 1221.89 1066.56 1221.18 1064.38 1219.76C1062.2 1218.33 1060.54 1216.35 1059.39 1213.83C1058.27 1211.29 1057.69 1208.37 1057.65 1205.07C1057.69 1201.71 1058.28 1198.77 1059.42 1196.25C1060.58 1193.71 1062.26 1191.75 1064.44 1190.35C1066.62 1188.95 1069.3 1188.25 1072.46 1188.25C1075.55 1188.25 1078.27 1189 1080.61 1190.5C1082.97 1191.97 1084.6 1194.01 1085.5 1196.6L1082.2 1197.81C1081.39 1195.83 1080.12 1194.29 1078.39 1193.21C1076.66 1192.11 1074.68 1191.56 1072.43 1191.56C1069.92 1191.56 1067.84 1192.14 1066.21 1193.3C1064.58 1194.44 1063.36 1196.02 1062.55 1198.05C1061.75 1200.07 1061.32 1202.41 1061.28 1205.07C1061.34 1209.14 1062.3 1212.42 1064.14 1214.89C1066.01 1217.35 1068.78 1218.58 1072.43 1218.58C1074.7 1218.58 1076.65 1218.06 1078.3 1217.02C1079.98 1215.98 1081.25 1214.46 1082.14 1212.47L1085.5 1213.62C1084.26 1216.32 1082.53 1218.37 1080.31 1219.79C1078.09 1221.19 1075.46 1221.89 1072.43 1221.89ZM1103.43 1221.74C1101.68 1221.74 1100.11 1221.48 1098.71 1220.97C1097.34 1220.46 1096.14 1219.74 1095.11 1218.82C1094.09 1217.87 1093.25 1216.77 1092.58 1215.51C1091.91 1214.23 1091.41 1212.84 1091.07 1211.32C1090.76 1209.81 1090.6 1208.23 1090.6 1206.57V1189.14H1094.02V1205.72C1094.02 1207.72 1094.22 1209.51 1094.61 1211.09C1095.03 1212.66 1095.63 1214 1096.44 1215.1C1097.27 1216.2 1098.29 1217.04 1099.51 1217.61C1100.75 1218.18 1102.2 1218.46 1103.88 1218.46C1105.61 1218.46 1107.1 1218.17 1108.36 1217.58C1109.64 1216.97 1110.68 1216.12 1111.49 1215.04C1112.31 1213.96 1112.92 1212.68 1113.32 1211.21C1113.73 1209.71 1113.93 1208.09 1113.93 1206.34L1116.62 1206.66C1116.62 1210.1 1116.03 1212.95 1114.85 1215.19C1113.69 1217.41 1112.12 1219.06 1110.13 1220.14C1108.14 1221.21 1105.91 1221.74 1103.43 1221.74ZM1114.26 1221V1213.83H1113.93V1189.14H1117.36V1221H1114.26ZM1125.09 1221V1189.14H1128.19V1196.78L1127.42 1195.78C1127.77 1194.87 1128.21 1194.04 1128.75 1193.27C1129.3 1192.48 1129.86 1191.84 1130.43 1191.35C1131.27 1190.57 1132.27 1189.98 1133.41 1189.58C1134.55 1189.17 1135.7 1188.93 1136.86 1188.87C1138.02 1188.8 1139.07 1188.88 1140.01 1189.14V1192.36C1138.76 1192.06 1137.42 1192 1136 1192.18C1134.59 1192.36 1133.26 1192.97 1132.02 1194.01C1130.94 1194.95 1130.15 1196.05 1129.66 1197.31C1129.17 1198.55 1128.85 1199.86 1128.72 1201.23C1128.58 1202.59 1128.51 1203.92 1128.51 1205.22V1221H1125.09ZM1145.69 1182.71V1178.37H1149.08V1182.71H1145.69ZM1145.69 1221V1189.14H1149.08V1221H1145.69ZM1174.35 1221C1172.66 1221.37 1170.99 1221.51 1169.34 1221.41C1167.68 1221.33 1166.21 1220.97 1164.91 1220.32C1163.63 1219.65 1162.67 1218.63 1162.02 1217.25C1161.49 1216.13 1161.19 1215 1161.14 1213.86C1161.08 1212.72 1161.05 1211.41 1161.05 1209.94V1180.29H1164.47V1209.88C1164.47 1211.22 1164.48 1212.33 1164.5 1213.21C1164.54 1214.08 1164.74 1214.87 1165.12 1215.6C1165.83 1216.96 1166.95 1217.78 1168.48 1218.08C1170.01 1218.35 1171.97 1218.31 1174.35 1217.93V1221ZM1153.91 1192.24V1189.14H1174.35V1192.24H1153.91ZM1183.73 1235.16L1189.93 1218.49L1189.99 1223.45L1176.03 1189.14H1179.66L1191.64 1218.93H1189.75L1200.64 1189.14H1204.21L1187.27 1235.16H1183.73Z" fill="black"/>
<path d="M574.789 1777V1734.52H578.181V1773.7H598.831V1777H574.789ZM616.44 1777.89C613.274 1777.89 610.589 1777.17 608.387 1775.73C606.184 1774.3 604.503 1772.31 603.342 1769.77C602.182 1767.24 601.602 1764.31 601.602 1761.01C601.602 1757.69 602.192 1754.77 603.372 1752.25C604.552 1749.71 606.243 1747.75 608.446 1746.35C610.668 1744.95 613.333 1744.25 616.44 1744.25C619.607 1744.25 622.291 1744.97 624.494 1746.41C626.716 1747.82 628.398 1749.79 629.538 1752.31C630.699 1754.83 631.279 1757.73 631.279 1761.01C631.279 1764.37 630.699 1767.32 629.538 1769.86C628.378 1772.38 626.687 1774.34 624.464 1775.76C622.242 1777.18 619.567 1777.89 616.44 1777.89ZM616.44 1774.58C620.197 1774.58 622.999 1773.32 624.848 1770.8C626.716 1768.29 627.65 1765.02 627.65 1761.01C627.65 1756.92 626.716 1753.66 624.848 1751.22C622.979 1748.78 620.177 1747.56 616.44 1747.56C613.903 1747.56 611.809 1748.14 610.157 1749.3C608.505 1750.44 607.266 1752.02 606.44 1754.05C605.633 1756.05 605.23 1758.38 605.23 1761.01C605.23 1765.1 606.174 1768.39 608.062 1770.86C609.97 1773.34 612.763 1774.58 616.44 1774.58ZM642.902 1777L633.167 1745.14H636.648L644.642 1771.31L652.637 1745.14H655.911L663.935 1771.31L671.959 1745.14H675.381L665.646 1777H662.46L654.289 1750.48L646.088 1777H642.902ZM692.188 1777.89C689.139 1777.89 686.504 1777.21 684.282 1775.85C682.059 1774.47 680.339 1772.54 679.119 1770.04C677.9 1767.52 677.29 1764.55 677.29 1761.13C677.29 1757.65 677.89 1754.65 679.09 1752.13C680.309 1749.59 682.02 1747.65 684.223 1746.29C686.445 1744.93 689.08 1744.25 692.129 1744.25C695.216 1744.25 697.852 1744.96 700.035 1746.38C702.237 1747.78 703.909 1749.8 705.05 1752.46C706.21 1755.11 706.761 1758.31 706.702 1762.04H703.162V1760.86C703.063 1756.5 702.08 1753.17 700.212 1750.89C698.343 1748.61 695.669 1747.47 692.188 1747.47C688.589 1747.47 685.806 1748.66 683.839 1751.04C681.892 1753.4 680.919 1756.74 680.919 1761.07C680.919 1765.36 681.892 1768.68 683.839 1771.04C685.806 1773.4 688.569 1774.58 692.129 1774.58C694.587 1774.58 696.731 1774.01 698.56 1772.87C700.408 1771.71 701.874 1770.06 702.955 1767.91L706.023 1769.27C704.745 1772.02 702.896 1774.15 700.477 1775.64C698.058 1777.14 695.295 1777.89 692.188 1777.89ZM679.621 1762.04V1758.98H704.784V1762.04H679.621ZM712.727 1777V1745.14H715.825V1752.78L715.058 1751.78C715.412 1750.87 715.854 1750.04 716.385 1749.27C716.936 1748.48 717.496 1747.84 718.067 1747.35C718.912 1746.57 719.906 1745.98 721.046 1745.58C722.187 1745.17 723.337 1744.93 724.498 1744.87C725.658 1744.8 726.71 1744.88 727.654 1745.14V1748.36C726.396 1748.06 725.058 1748 723.642 1748.18C722.226 1748.36 720.899 1748.97 719.66 1750.01C718.578 1750.95 717.791 1752.05 717.3 1753.31C716.808 1754.55 716.493 1755.86 716.356 1757.23C716.218 1758.59 716.149 1759.92 716.149 1761.22V1777H712.727ZM744.05 1777V1734.52H770.305V1737.82H747.443V1753.96H766.765V1757.26H747.443V1773.7H770.305V1777H744.05ZM800.245 1777V1760.42C800.245 1758.41 800.039 1756.63 799.626 1755.05C799.232 1753.48 798.623 1752.14 797.797 1751.04C796.99 1749.94 795.968 1749.1 794.729 1748.53C793.509 1747.96 792.064 1747.68 790.392 1747.68C788.662 1747.68 787.157 1747.98 785.879 1748.59C784.62 1749.18 783.578 1750.02 782.752 1751.1C781.945 1752.18 781.336 1753.47 780.923 1754.96C780.529 1756.44 780.333 1758.05 780.333 1759.8L777.648 1759.48C777.648 1756.04 778.228 1753.2 779.389 1750.98C780.569 1748.74 782.152 1747.09 784.138 1746.02C786.125 1744.94 788.357 1744.4 790.835 1744.4C792.585 1744.4 794.149 1744.66 795.525 1745.17C796.922 1745.68 798.131 1746.41 799.154 1747.35C800.176 1748.28 801.022 1749.38 801.691 1750.66C802.359 1751.92 802.851 1753.3 803.166 1754.82C803.5 1756.33 803.667 1757.91 803.667 1759.57V1777H800.245ZM776.911 1777V1745.14H780.008V1752.31H780.333V1777H776.911ZM823.198 1792.05C821.625 1792.05 820.052 1791.81 818.478 1791.34C816.925 1790.88 815.469 1790.14 814.112 1789.1C812.755 1788.07 811.605 1786.71 810.661 1784.99L813.729 1783.17C814.692 1785.13 816.059 1786.54 817.829 1787.38C819.599 1788.23 821.399 1788.65 823.228 1788.65C825.804 1788.65 827.84 1788.17 829.334 1787.21C830.849 1786.26 831.93 1784.84 832.579 1782.93C833.228 1781.04 833.553 1778.69 833.553 1775.88V1767.53H833.907V1745.14H837.004V1775.88C837.004 1776.82 836.985 1777.73 836.945 1778.59C836.906 1779.46 836.817 1780.32 836.68 1781.19C836.326 1783.65 835.598 1785.67 834.497 1787.27C833.395 1788.88 831.901 1790.08 830.013 1790.87C828.144 1791.65 825.873 1792.05 823.198 1792.05ZM823.051 1777.89C820.042 1777.89 817.495 1777.15 815.41 1775.67C813.345 1774.18 811.762 1772.16 810.661 1769.62C809.579 1767.07 809.038 1764.2 809.038 1761.01C809.038 1757.86 809.579 1755.02 810.661 1752.49C811.742 1749.95 813.296 1747.94 815.322 1746.47C817.367 1744.99 819.835 1744.25 822.726 1744.25C825.696 1744.25 828.203 1744.98 830.249 1746.44C832.294 1747.89 833.838 1749.89 834.88 1752.43C835.923 1754.94 836.444 1757.81 836.444 1761.01C836.444 1764.2 835.923 1767.06 834.88 1769.6C833.838 1772.13 832.324 1774.15 830.337 1775.64C828.351 1777.14 825.922 1777.89 823.051 1777.89ZM823.257 1774.64C825.637 1774.64 827.613 1774.05 829.187 1772.87C830.78 1771.67 831.96 1770.05 832.727 1768C833.513 1765.94 833.907 1763.61 833.907 1761.01C833.907 1758.4 833.513 1756.06 832.727 1754.02C831.94 1751.97 830.76 1750.38 829.187 1749.24C827.613 1748.08 825.657 1747.5 823.316 1747.5C820.897 1747.5 818.901 1748.1 817.328 1749.3C815.754 1750.48 814.584 1752.09 813.817 1754.14C813.05 1756.16 812.667 1758.45 812.667 1761.01C812.667 1763.59 813.06 1765.91 813.847 1767.97C814.653 1770.02 815.833 1771.64 817.387 1772.84C818.96 1774.04 820.917 1774.64 823.257 1774.64ZM845.353 1738.71V1734.37H848.746V1738.71H845.353ZM845.353 1777V1745.14H848.746V1777H845.353ZM880.446 1777V1760.42C880.446 1758.41 880.24 1756.63 879.827 1755.05C879.434 1753.48 878.824 1752.14 877.998 1751.04C877.192 1749.94 876.169 1749.1 874.93 1748.53C873.711 1747.96 872.265 1747.68 870.593 1747.68C868.863 1747.68 867.358 1747.98 866.08 1748.59C864.821 1749.18 863.779 1750.02 862.953 1751.1C862.147 1752.18 861.537 1753.47 861.124 1754.96C860.731 1756.44 860.534 1758.05 860.534 1759.8L857.849 1759.48C857.849 1756.04 858.43 1753.2 859.59 1750.98C860.77 1748.74 862.353 1747.09 864.339 1746.02C866.326 1744.94 868.558 1744.4 871.036 1744.4C872.786 1744.4 874.35 1744.66 875.726 1745.17C877.123 1745.68 878.332 1746.41 879.355 1747.35C880.378 1748.28 881.223 1749.38 881.892 1750.66C882.561 1751.92 883.052 1753.3 883.367 1754.82C883.701 1756.33 883.868 1757.91 883.868 1759.57V1777H880.446ZM857.112 1777V1745.14H860.209V1752.31H860.534V1777H857.112ZM904.022 1777.89C900.973 1777.89 898.338 1777.21 896.116 1775.85C893.893 1774.47 892.172 1772.54 890.953 1770.04C889.734 1767.52 889.124 1764.55 889.124 1761.13C889.124 1757.65 889.724 1754.65 890.924 1752.13C892.143 1749.59 893.854 1747.65 896.057 1746.29C898.279 1744.93 900.914 1744.25 903.963 1744.25C907.05 1744.25 909.686 1744.96 911.869 1746.38C914.071 1747.78 915.743 1749.8 916.884 1752.46C918.044 1755.11 918.595 1758.31 918.536 1762.04H914.996V1760.86C914.897 1756.5 913.914 1753.17 912.046 1750.89C910.177 1748.61 907.503 1747.47 904.022 1747.47C900.423 1747.47 897.64 1748.66 895.673 1751.04C893.726 1753.4 892.753 1756.74 892.753 1761.07C892.753 1765.36 893.726 1768.68 895.673 1771.04C897.64 1773.4 900.403 1774.58 903.963 1774.58C906.421 1774.58 908.565 1774.01 910.394 1772.87C912.242 1771.71 913.707 1770.06 914.789 1767.91L917.857 1769.27C916.579 1772.02 914.73 1774.15 912.311 1775.64C909.892 1777.14 907.129 1777.89 904.022 1777.89ZM891.455 1762.04V1758.98H916.618V1762.04H891.455Z" fill="black"/>
<path d="M588.786 692.885C585.6 692.885 582.768 692.226 580.29 690.908C577.832 689.571 575.894 687.703 574.478 685.303C573.082 682.884 572.384 680.052 572.384 676.807V649.52H575.806V676.099C575.806 678.518 576.209 680.593 577.015 682.324C577.841 684.035 578.903 685.431 580.201 686.513C581.519 687.595 582.925 688.391 584.42 688.902C585.934 689.414 587.39 689.669 588.786 689.669C590.182 689.669 591.638 689.414 593.152 688.902C594.666 688.391 596.072 687.595 597.37 686.513C598.668 685.431 599.721 684.035 600.527 682.324C601.353 680.593 601.766 678.518 601.766 676.099V649.52H605.188V676.807C605.188 680.033 604.48 682.855 603.064 685.274C601.668 687.673 599.73 689.542 597.252 690.879C594.794 692.216 591.972 692.885 588.786 692.885ZM626.918 692.885C624.047 692.885 621.618 692.138 619.632 690.643C617.646 689.148 616.131 687.132 615.089 684.595C614.047 682.058 613.525 679.197 613.525 676.011C613.525 672.805 614.047 669.944 615.089 667.426C616.131 664.889 617.675 662.893 619.72 661.438C621.766 659.983 624.273 659.255 627.243 659.255C630.134 659.255 632.602 659.992 634.647 661.467C636.693 662.942 638.246 664.948 639.308 667.485C640.39 670.022 640.931 672.864 640.931 676.011C640.931 679.197 640.38 682.068 639.279 684.625C638.197 687.162 636.614 689.178 634.529 690.672C632.464 692.148 629.927 692.885 626.918 692.885ZM612.965 706.16V660.14H616.062V684.684H616.357V706.16H612.965ZM626.712 689.64C629.052 689.64 630.999 689.04 632.553 687.84C634.126 686.641 635.306 685.018 636.093 682.973C636.899 680.908 637.302 678.587 637.302 676.011C637.302 673.454 636.909 671.163 636.122 669.137C635.355 667.092 634.185 665.479 632.612 664.299C631.058 663.1 629.072 662.5 626.653 662.5C624.313 662.5 622.356 663.08 620.782 664.24C619.209 665.381 618.029 666.974 617.242 669.019C616.456 671.065 616.062 673.395 616.062 676.011C616.062 678.607 616.446 680.937 617.213 683.002C618 685.048 619.18 686.67 620.753 687.87C622.346 689.05 624.332 689.64 626.712 689.64ZM660.874 692.885C658.002 692.885 655.573 692.138 653.587 690.643C651.601 689.148 650.086 687.132 649.044 684.595C648.002 682.058 647.481 679.197 647.481 676.011C647.481 672.805 648.002 669.944 649.044 667.426C650.086 664.889 651.63 662.893 653.676 661.438C655.721 659.983 658.228 659.255 661.198 659.255C664.089 659.255 666.557 659.992 668.603 661.467C670.648 662.942 672.202 664.948 673.264 667.485C674.345 670.022 674.886 672.864 674.886 676.011C674.886 679.197 674.335 682.068 673.234 684.625C672.152 687.162 670.569 689.178 668.485 690.672C666.42 692.148 663.883 692.885 660.874 692.885ZM646.92 706.16V660.14H650.018V684.684H650.313V706.16H646.92ZM660.667 689.64C663.007 689.64 664.954 689.04 666.508 687.84C668.081 686.641 669.261 685.018 670.048 682.973C670.854 680.908 671.258 678.587 671.258 676.011C671.258 673.454 670.864 671.163 670.078 669.137C669.311 667.092 668.14 665.479 666.567 664.299C665.013 663.1 663.027 662.5 660.608 662.5C658.268 662.5 656.311 663.08 654.738 664.24C653.164 665.381 651.984 666.974 651.198 669.019C650.411 671.065 650.018 673.395 650.018 676.011C650.018 678.607 650.401 680.937 651.168 683.002C651.955 685.048 653.135 686.67 654.708 687.87C656.301 689.05 658.287 689.64 660.667 689.64ZM694.003 692.885C690.954 692.885 688.319 692.207 686.097 690.849C683.874 689.473 682.153 687.536 680.934 685.038C679.715 682.521 679.105 679.551 679.105 676.129C679.105 672.648 679.705 669.649 680.905 667.131C682.124 664.594 683.835 662.647 686.038 661.29C688.26 659.933 690.895 659.255 693.944 659.255C697.031 659.255 699.667 659.963 701.85 661.379C704.052 662.775 705.724 664.801 706.865 667.456C708.025 670.111 708.576 673.307 708.517 677.043H704.977V675.863C704.878 671.497 703.895 668.174 702.027 665.892C700.158 663.611 697.484 662.47 694.003 662.47C690.404 662.47 687.621 663.66 685.654 666.04C683.707 668.4 682.734 671.743 682.734 676.07C682.734 680.357 683.707 683.681 685.654 686.041C687.621 688.401 690.384 689.581 693.944 689.581C696.402 689.581 698.546 689.011 700.375 687.87C702.223 686.71 703.688 685.058 704.77 682.914L707.838 684.271C706.56 687.024 704.711 689.148 702.292 690.643C699.873 692.138 697.11 692.885 694.003 692.885ZM681.436 677.043V673.975H706.599V677.043H681.436ZM714.542 692V660.14H717.64V667.78L716.873 666.777C717.227 665.873 717.669 665.037 718.2 664.27C718.751 663.483 719.311 662.844 719.882 662.353C720.727 661.566 721.72 660.976 722.861 660.582C724.002 660.169 725.152 659.933 726.313 659.874C727.473 659.796 728.525 659.884 729.469 660.14V663.355C728.21 663.06 726.873 663.001 725.457 663.178C724.041 663.355 722.714 663.965 721.475 665.007C720.393 665.951 719.606 667.053 719.115 668.311C718.623 669.55 718.308 670.858 718.171 672.235C718.033 673.592 717.964 674.919 717.964 676.217V692H714.542ZM745.865 692V649.52H772.12V652.824H749.258V668.96H768.58V672.264H749.258V688.696H772.12V692H745.865ZM802.06 692V675.421C802.06 673.415 801.854 671.625 801.441 670.052C801.047 668.479 800.438 667.141 799.612 666.04C798.805 664.939 797.783 664.103 796.544 663.532C795.324 662.962 793.879 662.677 792.207 662.677C790.477 662.677 788.972 662.982 787.694 663.591C786.435 664.181 785.393 665.017 784.567 666.099C783.76 667.181 783.151 668.469 782.738 669.963C782.344 671.438 782.148 673.051 782.148 674.801L779.463 674.477C779.463 671.035 780.043 668.203 781.204 665.981C782.384 663.739 783.967 662.087 785.953 661.025C787.94 659.943 790.172 659.402 792.65 659.402C794.4 659.402 795.964 659.658 797.34 660.17C798.737 660.681 799.946 661.408 800.969 662.353C801.991 663.277 802.837 664.378 803.506 665.656C804.174 666.915 804.666 668.302 804.981 669.816C805.315 671.33 805.482 672.913 805.482 674.565V692H802.06ZM778.726 692V660.14H781.823V667.308H782.148V692H778.726ZM825.013 707.045C823.44 707.045 821.866 706.809 820.293 706.337C818.739 705.885 817.284 705.137 815.927 704.095C814.57 703.072 813.42 701.706 812.476 699.995L815.544 698.166C816.507 700.132 817.874 701.538 819.644 702.384C821.414 703.23 823.214 703.653 825.043 703.653C827.619 703.653 829.654 703.171 831.149 702.207C832.663 701.263 833.745 699.837 834.394 697.93C835.043 696.042 835.368 693.691 835.368 690.879V682.53H835.722V660.14H838.819V690.879C838.819 691.823 838.799 692.728 838.76 693.593C838.721 694.458 838.632 695.324 838.495 696.189C838.141 698.647 837.413 700.673 836.312 702.266C835.21 703.879 833.716 705.078 831.828 705.865C829.959 706.652 827.688 707.045 825.013 707.045ZM824.866 692.885C821.857 692.885 819.31 692.148 817.225 690.672C815.16 689.178 813.577 687.162 812.476 684.625C811.394 682.068 810.853 679.197 810.853 676.011C810.853 672.864 811.394 670.022 812.476 667.485C813.557 664.948 815.111 662.942 817.137 661.467C819.182 659.992 821.65 659.255 824.541 659.255C827.511 659.255 830.018 659.983 832.064 661.438C834.109 662.893 835.653 664.889 836.695 667.426C837.737 669.944 838.259 672.805 838.259 676.011C838.259 679.197 837.737 682.058 836.695 684.595C835.653 687.132 834.138 689.148 832.152 690.643C830.166 692.138 827.737 692.885 824.866 692.885ZM825.072 689.64C827.452 689.64 829.428 689.05 831.002 687.87C832.595 686.67 833.775 685.048 834.542 683.002C835.328 680.937 835.722 678.607 835.722 676.011C835.722 673.395 835.328 671.065 834.542 669.019C833.755 666.974 832.575 665.381 831.002 664.24C829.428 663.08 827.471 662.5 825.131 662.5C822.712 662.5 820.716 663.1 819.143 664.299C817.569 665.479 816.399 667.092 815.632 669.137C814.865 671.163 814.482 673.454 814.482 676.011C814.482 678.587 814.875 680.908 815.662 682.973C816.468 685.018 817.648 686.641 819.202 687.84C820.775 689.04 822.732 689.64 825.072 689.64ZM847.168 653.709V649.372H850.561V653.709H847.168ZM847.168 692V660.14H850.561V692H847.168ZM882.261 692V675.421C882.261 673.415 882.055 671.625 881.642 670.052C881.249 668.479 880.639 667.141 879.813 666.04C879.007 664.939 877.984 664.103 876.745 663.532C875.526 662.962 874.08 662.677 872.408 662.677C870.678 662.677 869.173 662.982 867.895 663.591C866.636 664.181 865.594 665.017 864.768 666.099C863.962 667.181 863.352 668.469 862.939 669.963C862.546 671.438 862.349 673.051 862.349 674.801L859.664 674.477C859.664 671.035 860.245 668.203 861.405 665.981C862.585 663.739 864.168 662.087 866.154 661.025C868.141 659.943 870.373 659.402 872.851 659.402C874.601 659.402 876.165 659.658 877.541 660.17C878.938 660.681 880.147 661.408 881.17 662.353C882.193 663.277 883.038 664.378 883.707 665.656C884.376 666.915 884.867 668.302 885.182 669.816C885.516 671.33 885.683 672.913 885.683 674.565V692H882.261ZM858.927 692V660.14H862.024V667.308H862.349V692H858.927ZM905.837 692.885C902.788 692.885 900.153 692.207 897.931 690.849C895.708 689.473 893.987 687.536 892.768 685.038C891.549 682.521 890.939 679.551 890.939 676.129C890.939 672.648 891.539 669.649 892.739 667.131C893.958 664.594 895.669 662.647 897.872 661.29C900.094 659.933 902.729 659.255 905.778 659.255C908.865 659.255 911.501 659.963 913.684 661.379C915.886 662.775 917.558 664.801 918.699 667.456C919.859 670.111 920.41 673.307 920.351 677.043H916.811V675.863C916.712 671.497 915.729 668.174 913.861 665.892C911.992 663.611 909.318 662.47 905.837 662.47C902.238 662.47 899.455 663.66 897.488 666.04C895.541 668.4 894.568 671.743 894.568 676.07C894.568 680.357 895.541 683.681 897.488 686.041C899.455 688.401 902.218 689.581 905.778 689.581C908.236 689.581 910.38 689.011 912.209 687.87C914.057 686.71 915.522 685.058 916.604 682.914L919.672 684.271C918.394 687.024 916.545 689.148 914.126 690.643C911.707 692.138 908.944 692.885 905.837 692.885ZM893.27 677.043V673.975H918.433V677.043H893.27Z" fill="black"/>
<path d="M296.258 1220V1177.52H312.277C312.69 1177.52 313.132 1177.54 313.604 1177.58C314.096 1177.6 314.607 1177.66 315.138 1177.76C317.262 1178.09 319.082 1178.86 320.596 1180.06C322.13 1181.24 323.3 1182.73 324.106 1184.54C324.913 1186.33 325.316 1188.31 325.316 1190.47C325.316 1193.6 324.48 1196.32 322.808 1198.64C321.137 1200.96 318.806 1202.44 315.817 1203.07L314.843 1203.45H299.651V1220H296.258ZM322.425 1220L314.047 1202.71L317.203 1201.12L326.407 1220H322.425ZM299.651 1200.12H312.218C312.572 1200.12 312.975 1200.1 313.427 1200.06C313.899 1200.02 314.371 1199.96 314.843 1199.88C316.377 1199.57 317.656 1198.95 318.678 1198.02C319.701 1197.08 320.468 1195.95 320.979 1194.63C321.491 1193.31 321.746 1191.93 321.746 1190.47C321.746 1189.02 321.491 1187.64 320.979 1186.34C320.468 1185.02 319.701 1183.9 318.678 1182.98C317.656 1182.03 316.377 1181.4 314.843 1181.09C314.371 1180.99 313.899 1180.92 313.427 1180.88C312.975 1180.84 312.572 1180.82 312.218 1180.82H299.651V1200.12ZM345.53 1220.89C342.482 1220.89 339.847 1220.21 337.624 1218.85C335.402 1217.47 333.681 1215.54 332.462 1213.04C331.243 1210.52 330.633 1207.55 330.633 1204.13C330.633 1200.65 331.233 1197.65 332.432 1195.13C333.652 1192.59 335.363 1190.65 337.565 1189.29C339.788 1187.93 342.423 1187.25 345.471 1187.25C348.559 1187.25 351.194 1187.96 353.377 1189.38C355.58 1190.78 357.252 1192.8 358.392 1195.46C359.553 1198.11 360.103 1201.31 360.044 1205.04H356.504V1203.86C356.406 1199.5 355.423 1196.17 353.554 1193.89C351.686 1191.61 349.011 1190.47 345.53 1190.47C341.931 1190.47 339.149 1191.66 337.182 1194.04C335.235 1196.4 334.261 1199.74 334.261 1204.07C334.261 1208.36 335.235 1211.68 337.182 1214.04C339.149 1216.4 341.912 1217.58 345.471 1217.58C347.93 1217.58 350.073 1217.01 351.902 1215.87C353.751 1214.71 355.216 1213.06 356.298 1210.91L359.366 1212.27C358.088 1215.02 356.239 1217.15 353.82 1218.64C351.401 1220.14 348.638 1220.89 345.53 1220.89ZM332.963 1205.04V1201.98H358.127V1205.04H332.963ZM374.698 1220.89C372.239 1220.89 370.194 1220.45 368.562 1219.59C366.949 1218.72 365.74 1217.58 364.933 1216.16C364.127 1214.73 363.724 1213.18 363.724 1211.5C363.724 1209.69 364.097 1208.18 364.845 1206.96C365.612 1205.74 366.625 1204.76 367.883 1204.01C369.162 1203.26 370.568 1202.7 372.102 1202.33C373.852 1201.94 375.74 1201.6 377.766 1201.33C379.791 1201.03 381.719 1200.78 383.548 1200.56C385.396 1200.34 386.901 1200.16 388.061 1200L386.822 1200.74C386.901 1197.29 386.252 1194.74 384.875 1193.07C383.518 1191.38 381.119 1190.53 377.677 1190.53C375.258 1190.53 373.262 1191.08 371.689 1192.18C370.135 1193.26 369.044 1194.94 368.414 1197.23L364.933 1196.25C365.661 1193.36 367.126 1191.14 369.329 1189.59C371.531 1188.03 374.354 1187.25 377.795 1187.25C380.726 1187.25 383.184 1187.83 385.17 1188.97C387.176 1190.11 388.573 1191.71 389.359 1193.77C389.694 1194.62 389.92 1195.61 390.038 1196.75C390.156 1197.87 390.215 1199.01 390.215 1200.15V1220H387.117V1211.62L388.268 1211.92C387.304 1214.79 385.623 1217 383.223 1218.55C380.824 1220.11 377.982 1220.89 374.698 1220.89ZM374.875 1217.76C377.038 1217.76 378.936 1217.37 380.568 1216.61C382.201 1215.82 383.518 1214.73 384.521 1213.33C385.544 1211.92 386.193 1210.26 386.468 1208.35C386.665 1207.29 386.773 1206.13 386.793 1204.9C386.812 1203.66 386.822 1202.74 386.822 1202.15L388.297 1203.1C387.019 1203.25 385.485 1203.42 383.695 1203.6C381.925 1203.77 380.116 1203.99 378.267 1204.25C376.419 1204.5 374.747 1204.83 373.252 1205.22C372.328 1205.48 371.394 1205.85 370.45 1206.34C369.525 1206.81 368.749 1207.47 368.119 1208.32C367.51 1209.16 367.205 1210.24 367.205 1211.53C367.205 1212.5 367.441 1213.46 367.913 1214.42C368.404 1215.39 369.211 1216.18 370.332 1216.81C371.453 1217.44 372.967 1217.76 374.875 1217.76ZM410.384 1220.89C407.198 1220.89 404.514 1220.18 402.331 1218.76C400.148 1217.33 398.486 1215.35 397.345 1212.83C396.224 1210.29 395.644 1207.37 395.605 1204.07C395.644 1200.71 396.234 1197.77 397.375 1195.25C398.535 1192.71 400.207 1190.75 402.39 1189.35C404.573 1187.95 407.247 1187.25 410.414 1187.25C413.501 1187.25 416.215 1188 418.556 1189.5C420.916 1190.97 422.548 1193.01 423.453 1195.6L420.149 1196.81C419.342 1194.83 418.074 1193.29 416.343 1192.21C414.612 1191.11 412.626 1190.56 410.384 1190.56C407.867 1190.56 405.792 1191.14 404.16 1192.3C402.527 1193.44 401.308 1195.02 400.502 1197.05C399.695 1199.07 399.272 1201.41 399.233 1204.07C399.292 1208.14 400.246 1211.42 402.095 1213.89C403.963 1216.35 406.726 1217.58 410.384 1217.58C412.646 1217.58 414.603 1217.06 416.255 1216.02C417.926 1214.98 419.205 1213.46 420.09 1211.47L423.453 1212.62C422.214 1215.32 420.483 1217.37 418.261 1218.79C416.038 1220.19 413.413 1220.89 410.384 1220.89ZM446.044 1220C444.352 1220.37 442.681 1220.51 441.029 1220.41C439.377 1220.33 437.902 1219.97 436.604 1219.32C435.325 1218.65 434.362 1217.63 433.713 1216.25C433.182 1215.13 432.887 1214 432.828 1212.86C432.769 1211.72 432.739 1210.41 432.739 1208.94V1179.29H436.161V1208.88C436.161 1210.22 436.171 1211.33 436.191 1212.21C436.23 1213.08 436.437 1213.87 436.81 1214.6C437.518 1215.96 438.639 1216.78 440.173 1217.08C441.707 1217.35 443.664 1217.31 446.044 1216.93V1220ZM425.6 1191.24V1188.14H446.044V1191.24H425.6ZM463.661 1220.89C460.495 1220.89 457.81 1220.17 455.607 1218.73C453.405 1217.3 451.723 1215.31 450.563 1212.77C449.403 1210.24 448.822 1207.31 448.822 1204.01C448.822 1200.69 449.412 1197.77 450.592 1195.25C451.772 1192.71 453.464 1190.75 455.666 1189.35C457.889 1187.95 460.554 1187.25 463.661 1187.25C466.827 1187.25 469.512 1187.97 471.714 1189.41C473.937 1190.82 475.618 1192.79 476.759 1195.31C477.919 1197.83 478.499 1200.73 478.499 1204.01C478.499 1207.37 477.919 1210.32 476.759 1212.86C475.599 1215.38 473.907 1217.34 471.685 1218.76C469.463 1220.18 466.788 1220.89 463.661 1220.89ZM463.661 1217.58C467.417 1217.58 470.22 1216.32 472.068 1213.8C473.937 1211.29 474.871 1208.02 474.871 1204.01C474.871 1199.92 473.937 1196.66 472.068 1194.22C470.2 1191.78 467.398 1190.56 463.661 1190.56C461.124 1190.56 459.029 1191.14 457.377 1192.3C455.725 1193.44 454.486 1195.02 453.66 1197.05C452.854 1199.05 452.451 1201.38 452.451 1204.01C452.451 1208.1 453.395 1211.39 455.283 1213.86C457.191 1216.34 459.983 1217.58 463.661 1217.58ZM484.49 1220V1188.14H487.587V1195.78L486.82 1194.78C487.174 1193.87 487.617 1193.04 488.148 1192.27C488.699 1191.48 489.259 1190.84 489.829 1190.35C490.675 1189.57 491.668 1188.98 492.809 1188.58C493.95 1188.17 495.1 1187.93 496.26 1187.87C497.421 1187.8 498.473 1187.88 499.417 1188.14V1191.36C498.158 1191.06 496.821 1191 495.405 1191.18C493.989 1191.36 492.661 1191.97 491.422 1193.01C490.341 1193.95 489.554 1195.05 489.062 1196.31C488.571 1197.55 488.256 1198.86 488.118 1200.23C487.981 1201.59 487.912 1202.92 487.912 1204.22V1220H484.49Z" fill="black"/>
</g>
<defs>
<clipPath id="clip0">
<rect width="4000" height="2400" fill="white"/>
</clipPath>
</defs>
</svg>
